M48
;Layer_Color=9474304
;FILE_FORMAT=2:5
INCH,LZ
;TYPE=PLATED
T1F00S00C0.02756
T2F00S00C0.02800
T3F00S00C0.03937
T4F00S00C0.04331
T5F00S00C0.04724
T6F00S00C0.09843
T7F00S00C0.11706
T8F00S00C0.13780
%
T01
X03375Y0202815
Y0212657
Y02225
T02
X01225Y00675
X02866Y02194
X01475Y01875
X013
Y017
X01475
X011Y0165
X0105Y0195
Y021
X01375Y00825
X01575Y00775
X017Y02425
X0125
X01025Y02525
X0215Y02425
X026Y02375
T03
X02225Y02225
X02325
X02425
X02525
X02625
X02725
X02125
X02025
X01925
X01825
X01725
X01625
X01525
X01425
X01325
X01225
X01125
X01025
X00925
X00825
T04
X00525Y002
Y003
Y004
Y005
Y006
Y007
X00625
Y006
Y005
Y004
Y003
Y002
X02925
X03025
Y003
X02925
Y004
X03025
Y005
X02925
Y006
X03025
Y007
X02925
Y008
X03025
Y009
X02925
Y01
X03025
Y011
X02925
Y012
X03025
Y013
X02925
Y014
X03025
Y015
X02925
Y016
X03025
Y017
X02925
Y018
X03025
Y019
X02925
Y02
X03025
Y021
X02925
X00625
Y02
Y019
Y018
Y017
Y016
Y015
Y014
Y013
Y012
Y011
Y01
Y009
Y008
X00525
Y009
Y01
Y011
Y012
Y013
Y014
Y015
Y016
Y017
Y018
Y019
Y02
Y021
T05
X0067658Y0242953
X00775
X0087343
X0267657
X02775
X0287343
T06
X0039705Y0026831
X0315295
Y02225
X0039705
T07
X0060177Y0270512
X0094823
X0260177
X0294823
T08
X002Y002
X0335
X002Y02825
X0335
M30
