G04*
G04 #@! TF.GenerationSoftware,Altium Limited,Altium Designer,23.3.1 (30)*
G04*
G04 Layer_Physical_Order=2*
G04 Layer_Color=16711680*
%FSLAX25Y25*%
%MOIN*%
G70*
G04*
G04 #@! TF.SameCoordinates,9A21843B-87D8-4875-86EA-9B3002E87254*
G04*
G04*
G04 #@! TF.FilePolarity,Positive*
G04*
G01*
G75*
%ADD12C,0.01000*%
%ADD34C,0.00984*%
%ADD35C,0.01378*%
%ADD36C,0.01968*%
%ADD37C,0.01575*%
%ADD38C,0.04724*%
%ADD39C,0.07087*%
%ADD40C,0.15748*%
%ADD41C,0.17559*%
%ADD42C,0.23622*%
%ADD43C,0.06693*%
%ADD44R,0.06693X0.06693*%
%ADD45C,0.05000*%
G36*
X332479Y296066D02*
X330729Y295646D01*
X328725Y294816D01*
X326876Y293682D01*
X325226Y292274D01*
X323818Y290624D01*
X322684Y288775D01*
X321854Y286771D01*
X321348Y284662D01*
X321178Y282500D01*
X321348Y280338D01*
X321854Y278229D01*
X322684Y276225D01*
X323818Y274376D01*
X325226Y272726D01*
X326876Y271318D01*
X328725Y270184D01*
X330729Y269354D01*
X332838Y268848D01*
X335000Y268678D01*
X337162Y268848D01*
X339271Y269354D01*
X341275Y270184D01*
X343124Y271318D01*
X344774Y272726D01*
X346182Y274376D01*
X347316Y276225D01*
X348146Y278229D01*
X348566Y279979D01*
X349066Y279920D01*
X349066Y22580D01*
X348566Y22521D01*
X348146Y24271D01*
X347316Y26275D01*
X346182Y28124D01*
X344774Y29774D01*
X343124Y31182D01*
X341275Y32316D01*
X339271Y33146D01*
X337162Y33652D01*
X335000Y33822D01*
X332838Y33652D01*
X330729Y33146D01*
X328725Y32316D01*
X326876Y31182D01*
X325226Y29774D01*
X325167Y29705D01*
X324678Y29807D01*
X324432Y30615D01*
X323519Y32325D01*
X322289Y33824D01*
X320790Y35054D01*
X319080Y35968D01*
X317225Y36531D01*
X315295Y36721D01*
X313366Y36531D01*
X311510Y35968D01*
X309801Y35054D01*
X308302Y33824D01*
X307557Y32917D01*
X306937Y32949D01*
X306291Y33791D01*
X305180Y34643D01*
X304921Y34750D01*
Y35250D01*
X305180Y35357D01*
X306291Y36209D01*
X307143Y37320D01*
X307678Y38612D01*
X307861Y40000D01*
X307678Y41388D01*
X307143Y42680D01*
X306291Y43791D01*
X305180Y44643D01*
X304921Y44750D01*
Y45250D01*
X305180Y45357D01*
X306291Y46209D01*
X307143Y47320D01*
X307678Y48612D01*
X307861Y50000D01*
X307678Y51388D01*
X307143Y52680D01*
X306291Y53791D01*
X305180Y54643D01*
X304921Y54750D01*
Y55250D01*
X305180Y55357D01*
X306291Y56209D01*
X307143Y57320D01*
X307678Y58613D01*
X307861Y60000D01*
X307678Y61387D01*
X307143Y62680D01*
X306291Y63791D01*
X305180Y64643D01*
X304921Y64750D01*
Y65250D01*
X305180Y65357D01*
X306291Y66209D01*
X307143Y67320D01*
X307678Y68612D01*
X307861Y70000D01*
X307678Y71387D01*
X307143Y72680D01*
X306291Y73791D01*
X305180Y74643D01*
X304921Y74750D01*
Y75250D01*
X305180Y75357D01*
X306291Y76209D01*
X307143Y77320D01*
X307678Y78613D01*
X307861Y80000D01*
X307678Y81388D01*
X307143Y82680D01*
X306291Y83791D01*
X305180Y84643D01*
X304921Y84750D01*
Y85250D01*
X305180Y85357D01*
X306291Y86209D01*
X307143Y87320D01*
X307678Y88613D01*
X307861Y90000D01*
X307678Y91387D01*
X307143Y92680D01*
X306291Y93791D01*
X305180Y94643D01*
X304921Y94750D01*
Y95250D01*
X305180Y95357D01*
X306291Y96209D01*
X307143Y97320D01*
X307678Y98612D01*
X307861Y100000D01*
X307678Y101388D01*
X307143Y102680D01*
X306291Y103791D01*
X305180Y104643D01*
X304921Y104750D01*
Y105250D01*
X305180Y105357D01*
X306291Y106209D01*
X307143Y107320D01*
X307678Y108613D01*
X307861Y110000D01*
X307678Y111388D01*
X307143Y112680D01*
X306291Y113791D01*
X305180Y114643D01*
X303888Y115178D01*
X303386Y115244D01*
X303386Y115749D01*
X303630Y115781D01*
X304684Y116217D01*
X305589Y116911D01*
X306283Y117816D01*
X306719Y118869D01*
X306790Y119409D01*
X302500D01*
Y120591D01*
X306790D01*
X306719Y121131D01*
X306283Y122184D01*
X305589Y123089D01*
X304684Y123783D01*
X303630Y124219D01*
X303386Y124251D01*
X303386Y124756D01*
X303888Y124822D01*
X305180Y125357D01*
X306291Y126209D01*
X307143Y127320D01*
X307678Y128612D01*
X307861Y130000D01*
X307678Y131387D01*
X307143Y132680D01*
X306291Y133791D01*
X305180Y134643D01*
X304921Y134750D01*
Y135250D01*
X305180Y135357D01*
X306291Y136209D01*
X307143Y137320D01*
X307678Y138612D01*
X307861Y140000D01*
X307678Y141387D01*
X307143Y142680D01*
X306291Y143791D01*
X305180Y144643D01*
X304921Y144750D01*
Y145250D01*
X305180Y145357D01*
X306291Y146209D01*
X307143Y147320D01*
X307678Y148612D01*
X307861Y150000D01*
X307678Y151388D01*
X307143Y152680D01*
X306291Y153791D01*
X305180Y154643D01*
X304921Y154750D01*
Y155250D01*
X305180Y155357D01*
X306291Y156209D01*
X307143Y157320D01*
X307678Y158613D01*
X307861Y160000D01*
X307678Y161388D01*
X307143Y162680D01*
X306291Y163791D01*
X305180Y164643D01*
X304921Y164750D01*
Y165250D01*
X305180Y165357D01*
X306291Y166209D01*
X307143Y167320D01*
X307678Y168613D01*
X307861Y170000D01*
X307678Y171388D01*
X307143Y172680D01*
X306291Y173791D01*
X305180Y174643D01*
X304921Y174750D01*
Y175250D01*
X305180Y175357D01*
X306291Y176209D01*
X307143Y177320D01*
X307678Y178612D01*
X307861Y180000D01*
X307678Y181387D01*
X307143Y182680D01*
X306291Y183791D01*
X305180Y184643D01*
X304921Y184750D01*
Y185250D01*
X305180Y185357D01*
X306291Y186209D01*
X307143Y187320D01*
X307678Y188612D01*
X307861Y190000D01*
X307678Y191387D01*
X307143Y192680D01*
X306291Y193791D01*
X305180Y194643D01*
X304921Y194750D01*
Y195250D01*
X305180Y195357D01*
X306291Y196209D01*
X307143Y197320D01*
X307678Y198612D01*
X307861Y200000D01*
X307678Y201388D01*
X307143Y202680D01*
X306291Y203791D01*
X305777Y204185D01*
X305946Y204685D01*
X307815D01*
Y210529D01*
X307902Y210575D01*
X308315Y210687D01*
X308851Y210275D01*
X309570Y209978D01*
X310340Y209876D01*
X310340Y209876D01*
X326227D01*
X333150Y202953D01*
X333132Y202815D01*
X333281Y201684D01*
X333717Y200631D01*
X334411Y199726D01*
X335316Y199032D01*
X336369Y198596D01*
X337500Y198447D01*
X338631Y198596D01*
X339684Y199032D01*
X340589Y199726D01*
X341283Y200631D01*
X341719Y201684D01*
X341868Y202815D01*
X341719Y203945D01*
X341283Y204999D01*
X340589Y205904D01*
X339684Y206598D01*
X338631Y207034D01*
X337500Y207183D01*
X337362Y207165D01*
X336627Y207900D01*
X336860Y208374D01*
X337500Y208289D01*
X338631Y208438D01*
X339684Y208875D01*
X340589Y209569D01*
X341283Y210473D01*
X341719Y211527D01*
X341868Y212657D01*
X341719Y213788D01*
X341283Y214842D01*
X340589Y215746D01*
X339684Y216440D01*
X338631Y216877D01*
X337500Y217026D01*
X336369Y216877D01*
X335316Y216440D01*
X334411Y215746D01*
X333717Y214842D01*
X333281Y213788D01*
X333132Y212657D01*
X333216Y212018D01*
X332743Y211784D01*
X329567Y214960D01*
X328950Y215434D01*
X328231Y215731D01*
X327461Y215833D01*
X323141D01*
X322927Y216285D01*
X323519Y217005D01*
X324432Y218715D01*
X324995Y220570D01*
X325185Y222500D01*
X324995Y224429D01*
X324432Y226285D01*
X323519Y227995D01*
X322289Y229493D01*
X320790Y230723D01*
X319080Y231637D01*
X317225Y232200D01*
X315295Y232390D01*
X313366Y232200D01*
X311510Y231637D01*
X309801Y230723D01*
X308302Y229493D01*
X307072Y227995D01*
X306158Y226285D01*
X305595Y224429D01*
X305405Y222500D01*
X305408Y222469D01*
X304940Y222122D01*
X304566Y222277D01*
X303795Y222378D01*
X289947D01*
X289787Y222587D01*
X288854Y223303D01*
X287767Y223753D01*
X286600Y223907D01*
X285509Y223763D01*
X285266Y223856D01*
X285009Y224028D01*
Y231312D01*
X284818Y232272D01*
X284274Y233086D01*
X280009Y237351D01*
Y238026D01*
X280280Y238138D01*
X281431Y239022D01*
X282315Y240173D01*
X282683Y241063D01*
X283225D01*
X283388Y240669D01*
X284113Y239724D01*
X285059Y238998D01*
X286161Y238542D01*
X286752Y238464D01*
Y242953D01*
Y247442D01*
X286161Y247364D01*
X285059Y246908D01*
X284113Y246182D01*
X283388Y245236D01*
X283225Y244842D01*
X282683D01*
X282315Y245732D01*
X281431Y246884D01*
X280280Y247767D01*
X278939Y248323D01*
X277500Y248512D01*
X276061Y248323D01*
X274720Y247767D01*
X273569Y246884D01*
X272882Y245988D01*
X272276D01*
X271588Y246884D01*
X270437Y247767D01*
X269096Y248323D01*
X267657Y248512D01*
X266219Y248323D01*
X264878Y247767D01*
X263726Y246884D01*
X262843Y245732D01*
X262655Y245280D01*
X218499D01*
X218187Y245687D01*
X217253Y246403D01*
X216166Y246853D01*
X215000Y247007D01*
X213833Y246853D01*
X212747Y246403D01*
X211813Y245687D01*
X211501Y245280D01*
X173500D01*
X173187Y245687D01*
X172254Y246403D01*
X171167Y246853D01*
X170000Y247007D01*
X168833Y246853D01*
X167746Y246403D01*
X166813Y245687D01*
X166500Y245280D01*
X128499D01*
X128187Y245687D01*
X127253Y246403D01*
X126166Y246853D01*
X125000Y247007D01*
X124491Y246940D01*
X121902Y249529D01*
X122093Y249991D01*
X306461D01*
X333227Y223225D01*
X333132Y222500D01*
X333281Y221370D01*
X333717Y220316D01*
X334411Y219411D01*
X335316Y218717D01*
X336369Y218281D01*
X337500Y218132D01*
X338631Y218281D01*
X339684Y218717D01*
X340589Y219411D01*
X341283Y220316D01*
X341719Y221370D01*
X341868Y222500D01*
X341719Y223630D01*
X341283Y224684D01*
X340589Y225589D01*
X339684Y226283D01*
X338631Y226719D01*
X337500Y226868D01*
X336775Y226773D01*
X309274Y254274D01*
X308460Y254818D01*
X307500Y255009D01*
X106207D01*
X105687Y255687D01*
X104753Y256403D01*
X103666Y256854D01*
X102500Y257007D01*
X101333Y256854D01*
X100247Y256403D01*
X99313Y255687D01*
X98597Y254753D01*
X98146Y253666D01*
X97993Y252500D01*
X98144Y251351D01*
X98148Y251246D01*
X97839Y250851D01*
X72776D01*
X72056Y250756D01*
X71386Y250478D01*
X70810Y250036D01*
X69096Y248323D01*
X67658Y248512D01*
X66219Y248323D01*
X64878Y247767D01*
X63726Y246884D01*
X62843Y245732D01*
X62287Y244392D01*
X62098Y242953D01*
X62287Y241514D01*
X62843Y240173D01*
X63726Y239022D01*
X64878Y238138D01*
X66219Y237583D01*
X67658Y237393D01*
X67733Y237403D01*
X67954Y236955D01*
X56100Y225101D01*
X55556Y224287D01*
X55365Y223327D01*
Y215107D01*
X54865Y214773D01*
X53887Y215178D01*
X52500Y215361D01*
X51113Y215178D01*
X49820Y214643D01*
X48709Y213791D01*
X47857Y212680D01*
X47322Y211387D01*
X47139Y210000D01*
X47322Y208612D01*
X47857Y207320D01*
X48709Y206209D01*
X49820Y205357D01*
X50079Y205250D01*
Y204750D01*
X49820Y204643D01*
X48709Y203791D01*
X47857Y202680D01*
X47322Y201388D01*
X47139Y200000D01*
X47322Y198612D01*
X47857Y197320D01*
X48709Y196209D01*
X49820Y195357D01*
X50079Y195250D01*
Y194750D01*
X49820Y194643D01*
X48709Y193791D01*
X47857Y192680D01*
X47322Y191387D01*
X47139Y190000D01*
X47322Y188612D01*
X47857Y187320D01*
X48709Y186209D01*
X49820Y185357D01*
X50079Y185250D01*
Y184750D01*
X49820Y184643D01*
X48709Y183791D01*
X47857Y182680D01*
X47322Y181387D01*
X47139Y180000D01*
X47322Y178612D01*
X47857Y177320D01*
X48709Y176209D01*
X49820Y175357D01*
X50079Y175250D01*
Y174750D01*
X49820Y174643D01*
X48709Y173791D01*
X47857Y172680D01*
X47322Y171388D01*
X47139Y170000D01*
X47322Y168613D01*
X47857Y167320D01*
X48709Y166209D01*
X49820Y165357D01*
X50079Y165250D01*
Y164750D01*
X49820Y164643D01*
X48709Y163791D01*
X47857Y162680D01*
X47322Y161388D01*
X47139Y160000D01*
X47322Y158613D01*
X47857Y157320D01*
X48709Y156209D01*
X49820Y155357D01*
X50079Y155250D01*
Y154750D01*
X49820Y154643D01*
X48709Y153791D01*
X47857Y152680D01*
X47322Y151388D01*
X47139Y150000D01*
X47322Y148612D01*
X47857Y147320D01*
X48709Y146209D01*
X49820Y145357D01*
X50079Y145250D01*
Y144750D01*
X49820Y144643D01*
X48709Y143791D01*
X47857Y142680D01*
X47322Y141387D01*
X47139Y140000D01*
X47322Y138612D01*
X47857Y137320D01*
X48709Y136209D01*
X49820Y135357D01*
X50079Y135250D01*
Y134750D01*
X49820Y134643D01*
X48709Y133791D01*
X47857Y132680D01*
X47322Y131387D01*
X47139Y130000D01*
X47322Y128612D01*
X47857Y127320D01*
X48709Y126209D01*
X49820Y125357D01*
X51113Y124822D01*
X51614Y124756D01*
X51614Y124251D01*
X51370Y124219D01*
X50316Y123783D01*
X49411Y123089D01*
X48717Y122184D01*
X48281Y121131D01*
X48210Y120591D01*
X52500D01*
Y119409D01*
X48210D01*
X48281Y118869D01*
X48717Y117816D01*
X49411Y116911D01*
X50316Y116217D01*
X51370Y115781D01*
X51614Y115749D01*
X51614Y115244D01*
X51113Y115178D01*
X49820Y114643D01*
X48709Y113791D01*
X47857Y112680D01*
X47322Y111388D01*
X47139Y110000D01*
X47322Y108613D01*
X47857Y107320D01*
X48709Y106209D01*
X49820Y105357D01*
X50079Y105250D01*
Y104750D01*
X49820Y104643D01*
X48709Y103791D01*
X47857Y102680D01*
X47322Y101388D01*
X47139Y100000D01*
X47322Y98612D01*
X47857Y97320D01*
X48709Y96209D01*
X49820Y95357D01*
X50079Y95250D01*
Y94750D01*
X49820Y94643D01*
X48709Y93791D01*
X47857Y92680D01*
X47322Y91387D01*
X47139Y90000D01*
X47322Y88613D01*
X47857Y87320D01*
X48709Y86209D01*
X49820Y85357D01*
X50079Y85250D01*
Y84750D01*
X49820Y84643D01*
X48709Y83791D01*
X47857Y82680D01*
X47322Y81388D01*
X47139Y80000D01*
X47322Y78613D01*
X47857Y77320D01*
X48709Y76209D01*
X49820Y75357D01*
X50079Y75250D01*
Y74750D01*
X49820Y74643D01*
X48709Y73791D01*
X47857Y72680D01*
X47322Y71387D01*
X47139Y70000D01*
X47322Y68612D01*
X47857Y67320D01*
X48709Y66209D01*
X49820Y65357D01*
X51113Y64822D01*
X51614Y64756D01*
X51614Y64252D01*
X51370Y64219D01*
X50316Y63783D01*
X49411Y63089D01*
X48717Y62184D01*
X48281Y61130D01*
X48210Y60590D01*
X52500D01*
Y59409D01*
X48210D01*
X48281Y58869D01*
X48717Y57816D01*
X49411Y56911D01*
X50316Y56217D01*
X51370Y55781D01*
X51614Y55748D01*
X51614Y55244D01*
X51113Y55178D01*
X49820Y54643D01*
X48709Y53791D01*
X47857Y52680D01*
X47322Y51388D01*
X47139Y50000D01*
X47322Y48612D01*
X47857Y47320D01*
X48709Y46209D01*
X49820Y45357D01*
X50079Y45250D01*
Y44750D01*
X49820Y44643D01*
X48709Y43791D01*
X47857Y42680D01*
X47322Y41388D01*
X47139Y40000D01*
X47322Y38612D01*
X47857Y37320D01*
X48709Y36209D01*
X49820Y35357D01*
X50079Y35250D01*
Y34750D01*
X49820Y34643D01*
X48709Y33791D01*
X48063Y32949D01*
X47442Y32917D01*
X46698Y33824D01*
X45199Y35054D01*
X43490Y35968D01*
X41634Y36531D01*
X39705Y36721D01*
X37775Y36531D01*
X35920Y35968D01*
X34210Y35054D01*
X32711Y33824D01*
X31481Y32325D01*
X30567Y30615D01*
X30322Y29807D01*
X29833Y29705D01*
X29774Y29774D01*
X28124Y31182D01*
X26275Y32316D01*
X24271Y33146D01*
X22162Y33652D01*
X20000Y33822D01*
X17838Y33652D01*
X15729Y33146D01*
X13725Y32316D01*
X11876Y31182D01*
X10226Y29774D01*
X8818Y28124D01*
X7684Y26275D01*
X6854Y24271D01*
X6434Y22521D01*
X5934Y22580D01*
X5934Y279920D01*
X6434Y279979D01*
X6854Y278229D01*
X7684Y276225D01*
X8818Y274376D01*
X10226Y272726D01*
X11876Y271318D01*
X13725Y270184D01*
X15729Y269354D01*
X17838Y268848D01*
X20000Y268678D01*
X22162Y268848D01*
X24271Y269354D01*
X26275Y270184D01*
X28124Y271318D01*
X29774Y272726D01*
X31182Y274376D01*
X32316Y276225D01*
X33146Y278229D01*
X33652Y280338D01*
X33822Y282500D01*
X33652Y284662D01*
X33146Y286771D01*
X32316Y288775D01*
X31182Y290624D01*
X29774Y292274D01*
X28124Y293682D01*
X26275Y294816D01*
X24271Y295646D01*
X22521Y296066D01*
X22580Y296566D01*
X332420Y296566D01*
X332479Y296066D01*
D02*
G37*
G36*
X120560Y243009D02*
X120493Y242500D01*
X120647Y241334D01*
X121097Y240247D01*
X121813Y239313D01*
X122747Y238597D01*
X123834Y238146D01*
X125000Y237993D01*
X126166Y238146D01*
X127253Y238597D01*
X128187Y239313D01*
X128499Y239720D01*
X166500D01*
X166813Y239313D01*
X167746Y238597D01*
X168833Y238146D01*
X170000Y237993D01*
X171167Y238146D01*
X172254Y238597D01*
X173187Y239313D01*
X173500Y239720D01*
X211501D01*
X211813Y239313D01*
X212747Y238597D01*
X213833Y238146D01*
X215000Y237993D01*
X216166Y238146D01*
X217253Y238597D01*
X218187Y239313D01*
X218499Y239720D01*
X255633D01*
X255911Y239305D01*
X255646Y238667D01*
X255493Y237500D01*
X255605Y236652D01*
X250726Y231774D01*
X250182Y230960D01*
X249991Y230000D01*
Y227427D01*
X249720Y227315D01*
X248569Y226431D01*
X247796Y225424D01*
X247661Y225383D01*
X247339D01*
X247204Y225424D01*
X246431Y226431D01*
X245280Y227315D01*
X243939Y227870D01*
X242500Y228059D01*
X241061Y227870D01*
X239720Y227315D01*
X238569Y226431D01*
X237796Y225424D01*
X237661Y225383D01*
X237339D01*
X237204Y225424D01*
X236431Y226431D01*
X235280Y227315D01*
X233939Y227870D01*
X232500Y228059D01*
X231061Y227870D01*
X229720Y227315D01*
X228569Y226431D01*
X227796Y225424D01*
X227661Y225383D01*
X227339D01*
X227204Y225424D01*
X226431Y226431D01*
X225280Y227315D01*
X223939Y227870D01*
X222500Y228059D01*
X221061Y227870D01*
X219720Y227315D01*
X218569Y226431D01*
X217796Y225424D01*
X217661Y225383D01*
X217339D01*
X217204Y225424D01*
X216431Y226431D01*
X215280Y227315D01*
X213939Y227870D01*
X212500Y228059D01*
X211061Y227870D01*
X209720Y227315D01*
X208569Y226431D01*
X207796Y225424D01*
X207661Y225383D01*
X207339D01*
X207204Y225424D01*
X206431Y226431D01*
X205280Y227315D01*
X203939Y227870D01*
X202500Y228059D01*
X201061Y227870D01*
X199720Y227315D01*
X198569Y226431D01*
X197796Y225424D01*
X197661Y225383D01*
X197339D01*
X197204Y225424D01*
X196431Y226431D01*
X195280Y227315D01*
X193939Y227870D01*
X192500Y228059D01*
X191061Y227870D01*
X189720Y227315D01*
X188569Y226431D01*
X187796Y225424D01*
X187661Y225383D01*
X187339D01*
X187204Y225424D01*
X186431Y226431D01*
X185280Y227315D01*
X183939Y227870D01*
X182500Y228059D01*
X181061Y227870D01*
X179720Y227315D01*
X178569Y226431D01*
X177796Y225424D01*
X177661Y225383D01*
X177339D01*
X177204Y225424D01*
X176431Y226431D01*
X175280Y227315D01*
X173939Y227870D01*
X172500Y228059D01*
X171061Y227870D01*
X169720Y227315D01*
X168569Y226431D01*
X167796Y225424D01*
X167661Y225383D01*
X167339D01*
X167204Y225424D01*
X166431Y226431D01*
X165280Y227315D01*
X163939Y227870D01*
X162500Y228059D01*
X161061Y227870D01*
X159720Y227315D01*
X158569Y226431D01*
X157796Y225424D01*
X157661Y225383D01*
X157339D01*
X157204Y225424D01*
X156431Y226431D01*
X155280Y227315D01*
X153939Y227870D01*
X152500Y228059D01*
X151061Y227870D01*
X149720Y227315D01*
X148569Y226431D01*
X147796Y225424D01*
X147661Y225383D01*
X147339D01*
X147204Y225424D01*
X146431Y226431D01*
X145280Y227315D01*
X143939Y227870D01*
X142500Y228059D01*
X141061Y227870D01*
X139720Y227315D01*
X138569Y226431D01*
X137796Y225424D01*
X137661Y225383D01*
X137339D01*
X137204Y225424D01*
X136431Y226431D01*
X135280Y227315D01*
X133939Y227870D01*
X132500Y228059D01*
X131061Y227870D01*
X129720Y227315D01*
X128569Y226431D01*
X127796Y225424D01*
X127661Y225383D01*
X127339D01*
X127204Y225424D01*
X126431Y226431D01*
X125280Y227315D01*
X123939Y227870D01*
X122500Y228059D01*
X121061Y227870D01*
X119720Y227315D01*
X118569Y226431D01*
X117796Y225424D01*
X117661Y225383D01*
X117339D01*
X117204Y225424D01*
X116431Y226431D01*
X115280Y227315D01*
X113939Y227870D01*
X112500Y228059D01*
X111061Y227870D01*
X109720Y227315D01*
X108569Y226431D01*
X107796Y225424D01*
X107661Y225383D01*
X107339D01*
X107204Y225424D01*
X106431Y226431D01*
X105280Y227315D01*
X103939Y227870D01*
X102500Y228059D01*
X101061Y227870D01*
X99720Y227315D01*
X98569Y226431D01*
X97796Y225424D01*
X97661Y225383D01*
X97339D01*
X97204Y225424D01*
X96431Y226431D01*
X95280Y227315D01*
X93939Y227870D01*
X92500Y228059D01*
X91061Y227870D01*
X89720Y227315D01*
X88569Y226431D01*
X87796Y225424D01*
X87661Y225383D01*
X87339D01*
X87204Y225424D01*
X86431Y226431D01*
X85280Y227315D01*
X83939Y227870D01*
X82500Y228059D01*
X81061Y227870D01*
X79720Y227315D01*
X78569Y226431D01*
X77685Y225280D01*
X77130Y223939D01*
X76941Y222500D01*
X77130Y221061D01*
X77685Y219720D01*
X78569Y218569D01*
X79720Y217685D01*
X81061Y217130D01*
X82500Y216941D01*
X83939Y217130D01*
X85280Y217685D01*
X86431Y218569D01*
X87204Y219576D01*
X87339Y219617D01*
X87661D01*
X87796Y219576D01*
X88569Y218569D01*
X89522Y217838D01*
Y207500D01*
X89623Y206729D01*
X89921Y206011D01*
X90394Y205394D01*
X100527Y195261D01*
X100493Y195000D01*
X100646Y193833D01*
X101097Y192746D01*
X101813Y191813D01*
X102746Y191097D01*
X103833Y190647D01*
X105000Y190493D01*
X106167Y190647D01*
X107254Y191097D01*
X108187Y191813D01*
X108347Y192022D01*
X127933D01*
X128033Y191522D01*
X127746Y191403D01*
X126813Y190687D01*
X126097Y189753D01*
X125646Y188666D01*
X125493Y187500D01*
X125646Y186334D01*
X126097Y185247D01*
X126813Y184313D01*
X127491Y183793D01*
Y173707D01*
X126813Y173187D01*
X126097Y172254D01*
X125646Y171167D01*
X125493Y170000D01*
X125604Y169152D01*
X104335Y147883D01*
X67826D01*
X67548Y148299D01*
X67678Y148612D01*
X67861Y150000D01*
X67678Y151388D01*
X67143Y152680D01*
X66291Y153791D01*
X65180Y154643D01*
X64921Y154750D01*
Y155250D01*
X65180Y155357D01*
X66291Y156209D01*
X67143Y157320D01*
X67678Y158613D01*
X67861Y160000D01*
X67678Y161388D01*
X67143Y162680D01*
X66291Y163791D01*
X65180Y164643D01*
X63888Y165178D01*
X63386Y165244D01*
X63386Y165749D01*
X63630Y165781D01*
X64684Y166217D01*
X65589Y166911D01*
X66283Y167816D01*
X66719Y168869D01*
X66790Y169409D01*
X62500D01*
Y170591D01*
X66790D01*
X66719Y171131D01*
X66283Y172184D01*
X65589Y173089D01*
X64684Y173783D01*
X63630Y174219D01*
X63386Y174251D01*
X63386Y174756D01*
X63888Y174822D01*
X65180Y175357D01*
X66291Y176209D01*
X67143Y177320D01*
X67678Y178612D01*
X67861Y180000D01*
X67678Y181387D01*
X67143Y182680D01*
X66291Y183791D01*
X65180Y184643D01*
X64921Y184750D01*
Y185250D01*
X65180Y185357D01*
X66291Y186209D01*
X67143Y187320D01*
X67678Y188612D01*
X67861Y190000D01*
X67678Y191387D01*
X67143Y192680D01*
X66291Y193791D01*
X65180Y194643D01*
X64921Y194750D01*
Y195250D01*
X65180Y195357D01*
X66291Y196209D01*
X67143Y197320D01*
X67678Y198612D01*
X67861Y200000D01*
X67678Y201388D01*
X67143Y202680D01*
X66291Y203791D01*
X65777Y204185D01*
X65946Y204685D01*
X67815D01*
Y215315D01*
X60383D01*
Y222288D01*
X75790Y237695D01*
X76061Y237583D01*
X77500Y237393D01*
X78939Y237583D01*
X80280Y238138D01*
X81431Y239022D01*
X82314Y240173D01*
X82683Y241063D01*
X83224D01*
X83388Y240669D01*
X84113Y239724D01*
X85059Y238998D01*
X86161Y238542D01*
X86752Y238464D01*
Y242953D01*
X87343D01*
Y243543D01*
X91831D01*
X91754Y244135D01*
X91482Y244791D01*
X91816Y245291D01*
X118278D01*
X120560Y243009D01*
D02*
G37*
G36*
X263090Y218011D02*
X263682Y218089D01*
X264783Y218545D01*
X265729Y219271D01*
X266455Y220217D01*
X266697Y220801D01*
X267238D01*
X267685Y219720D01*
X268569Y218569D01*
X269522Y217838D01*
Y140000D01*
X269623Y139229D01*
X269921Y138511D01*
X270394Y137894D01*
X274848Y133440D01*
X274657Y132978D01*
X236526D01*
X172398Y197106D01*
X171782Y197579D01*
X171063Y197877D01*
X170293Y197978D01*
X108347D01*
X108187Y198187D01*
X107254Y198903D01*
X106167Y199354D01*
X105000Y199507D01*
X104739Y199473D01*
X95478Y208734D01*
Y217838D01*
X96431Y218569D01*
X97204Y219576D01*
X97339Y219617D01*
X97661D01*
X97796Y219576D01*
X98569Y218569D01*
X99720Y217685D01*
X101061Y217130D01*
X102500Y216941D01*
X103939Y217130D01*
X105280Y217685D01*
X106431Y218569D01*
X107204Y219576D01*
X107339Y219617D01*
X107661D01*
X107796Y219576D01*
X108569Y218569D01*
X109720Y217685D01*
X111061Y217130D01*
X112500Y216941D01*
X113939Y217130D01*
X115280Y217685D01*
X116431Y218569D01*
X117204Y219576D01*
X117339Y219617D01*
X117661D01*
X117796Y219576D01*
X118569Y218569D01*
X119720Y217685D01*
X121061Y217130D01*
X122500Y216941D01*
X123939Y217130D01*
X125280Y217685D01*
X126431Y218569D01*
X127204Y219576D01*
X127339Y219617D01*
X127661D01*
X127796Y219576D01*
X128569Y218569D01*
X129720Y217685D01*
X131061Y217130D01*
X132500Y216941D01*
X133939Y217130D01*
X135280Y217685D01*
X136431Y218569D01*
X137204Y219576D01*
X137339Y219617D01*
X137661D01*
X137796Y219576D01*
X138569Y218569D01*
X139720Y217685D01*
X141061Y217130D01*
X142500Y216941D01*
X143939Y217130D01*
X145280Y217685D01*
X146431Y218569D01*
X147204Y219576D01*
X147339Y219617D01*
X147661D01*
X147796Y219576D01*
X148569Y218569D01*
X149720Y217685D01*
X151061Y217130D01*
X152500Y216941D01*
X153939Y217130D01*
X155280Y217685D01*
X156431Y218569D01*
X157204Y219576D01*
X157339Y219617D01*
X157661D01*
X157796Y219576D01*
X158569Y218569D01*
X159720Y217685D01*
X161061Y217130D01*
X162500Y216941D01*
X163939Y217130D01*
X165280Y217685D01*
X166431Y218569D01*
X167204Y219576D01*
X167339Y219617D01*
X167661D01*
X167796Y219576D01*
X168569Y218569D01*
X169720Y217685D01*
X171061Y217130D01*
X172500Y216941D01*
X173939Y217130D01*
X175280Y217685D01*
X176431Y218569D01*
X177204Y219576D01*
X177339Y219617D01*
X177661D01*
X177796Y219576D01*
X178569Y218569D01*
X179720Y217685D01*
X181061Y217130D01*
X182500Y216941D01*
X183939Y217130D01*
X185280Y217685D01*
X186431Y218569D01*
X187204Y219576D01*
X187339Y219617D01*
X187661D01*
X187796Y219576D01*
X188569Y218569D01*
X189720Y217685D01*
X191061Y217130D01*
X192500Y216941D01*
X193939Y217130D01*
X195280Y217685D01*
X196431Y218569D01*
X197204Y219576D01*
X197339Y219617D01*
X197661D01*
X197796Y219576D01*
X198569Y218569D01*
X199720Y217685D01*
X201061Y217130D01*
X202500Y216941D01*
X203939Y217130D01*
X205280Y217685D01*
X206431Y218569D01*
X207204Y219576D01*
X207339Y219617D01*
X207661D01*
X207796Y219576D01*
X208569Y218569D01*
X209720Y217685D01*
X211061Y217130D01*
X212500Y216941D01*
X213939Y217130D01*
X215280Y217685D01*
X216431Y218569D01*
X217204Y219576D01*
X217339Y219617D01*
X217661D01*
X217796Y219576D01*
X218569Y218569D01*
X219720Y217685D01*
X221061Y217130D01*
X222500Y216941D01*
X223939Y217130D01*
X225280Y217685D01*
X226431Y218569D01*
X227204Y219576D01*
X227339Y219617D01*
X227661D01*
X227796Y219576D01*
X228569Y218569D01*
X229720Y217685D01*
X231061Y217130D01*
X232500Y216941D01*
X233939Y217130D01*
X235280Y217685D01*
X236431Y218569D01*
X237204Y219576D01*
X237339Y219617D01*
X237661D01*
X237796Y219576D01*
X238569Y218569D01*
X239720Y217685D01*
X241061Y217130D01*
X242500Y216941D01*
X243939Y217130D01*
X245280Y217685D01*
X246431Y218569D01*
X247204Y219576D01*
X247339Y219617D01*
X247661D01*
X247796Y219576D01*
X248569Y218569D01*
X249720Y217685D01*
X251061Y217130D01*
X252500Y216941D01*
X253939Y217130D01*
X255280Y217685D01*
X256431Y218569D01*
X257314Y219720D01*
X257762Y220801D01*
X258303D01*
X258545Y220217D01*
X259271Y219271D01*
X260217Y218545D01*
X261318Y218089D01*
X261909Y218011D01*
Y222500D01*
X263090D01*
Y218011D01*
D02*
G37*
G36*
X303206Y215777D02*
X303015Y215315D01*
X297185D01*
Y213446D01*
X296685Y213277D01*
X296291Y213791D01*
X295180Y214643D01*
X293887Y215178D01*
X292500Y215361D01*
X291112Y215178D01*
X289820Y214643D01*
X288709Y213791D01*
X287857Y212680D01*
X287322Y211387D01*
X287139Y210000D01*
X287322Y208612D01*
X287857Y207320D01*
X288709Y206209D01*
X289820Y205357D01*
X290079Y205250D01*
Y204750D01*
X289820Y204643D01*
X288709Y203791D01*
X287857Y202680D01*
X287322Y201388D01*
X287139Y200000D01*
X287322Y198612D01*
X287857Y197320D01*
X288709Y196209D01*
X289820Y195357D01*
X290079Y195250D01*
Y194750D01*
X289820Y194643D01*
X288709Y193791D01*
X287857Y192680D01*
X287322Y191387D01*
X287139Y190000D01*
X287322Y188612D01*
X287857Y187320D01*
X288709Y186209D01*
X289820Y185357D01*
X291112Y184822D01*
X291614Y184756D01*
X291614Y184251D01*
X291370Y184219D01*
X290316Y183783D01*
X289411Y183089D01*
X288717Y182184D01*
X288281Y181131D01*
X288210Y180591D01*
X292500D01*
Y179409D01*
X288210D01*
X288281Y178869D01*
X288717Y177816D01*
X289411Y176911D01*
X290316Y176217D01*
X291370Y175781D01*
X291614Y175749D01*
X291614Y175244D01*
X291112Y175178D01*
X289820Y174643D01*
X288709Y173791D01*
X287857Y172680D01*
X287322Y171388D01*
X287139Y170000D01*
X287322Y168613D01*
X287857Y167320D01*
X288709Y166209D01*
X289820Y165357D01*
X290079Y165250D01*
Y164750D01*
X289820Y164643D01*
X288709Y163791D01*
X287857Y162680D01*
X287322Y161388D01*
X287139Y160000D01*
X287322Y158613D01*
X287857Y157320D01*
X288709Y156209D01*
X289820Y155357D01*
X290079Y155250D01*
Y154750D01*
X289820Y154643D01*
X288709Y153791D01*
X287857Y152680D01*
X287727Y152366D01*
X287237Y152269D01*
X285009Y154497D01*
Y214772D01*
X285266Y214944D01*
X285509Y215037D01*
X286600Y214893D01*
X287767Y215047D01*
X288854Y215497D01*
X289787Y216213D01*
X289947Y216422D01*
X302561D01*
X303206Y215777D01*
D02*
G37*
G36*
X232920Y128161D02*
X174937Y70178D01*
X126077D01*
X125687Y70687D01*
X124753Y71403D01*
X123667Y71854D01*
X122500Y72007D01*
X121334Y71854D01*
X120247Y71403D01*
X119313Y70687D01*
X118597Y69753D01*
X118147Y68666D01*
X117993Y67500D01*
X118147Y66334D01*
X118597Y65246D01*
X119313Y64313D01*
X120247Y63597D01*
X121334Y63147D01*
X122500Y62993D01*
X123667Y63147D01*
X124753Y63597D01*
X125568Y64222D01*
X176171D01*
X176942Y64323D01*
X177660Y64621D01*
X178277Y65094D01*
X240205Y127022D01*
X288086D01*
X288709Y126209D01*
X289820Y125357D01*
X291112Y124822D01*
X291614Y124756D01*
X291614Y124251D01*
X291370Y124219D01*
X290316Y123783D01*
X289411Y123089D01*
X288717Y122184D01*
X288281Y121131D01*
X288210Y120591D01*
X292500D01*
Y119409D01*
X288210D01*
X288281Y118869D01*
X288717Y117816D01*
X289411Y116911D01*
X289820Y116598D01*
Y113402D01*
X289411Y113089D01*
X288717Y112184D01*
X288281Y111130D01*
X288210Y110591D01*
X292500D01*
Y109409D01*
X288210D01*
X288281Y108870D01*
X288717Y107816D01*
X289411Y106911D01*
X290316Y106217D01*
X291370Y105781D01*
X291614Y105748D01*
X291614Y105244D01*
X291112Y105178D01*
X289820Y104643D01*
X288709Y103791D01*
X287857Y102680D01*
X287322Y101388D01*
X287139Y100000D01*
X287322Y98612D01*
X287857Y97320D01*
X288709Y96209D01*
X289820Y95357D01*
X290079Y95250D01*
Y94750D01*
X289820Y94643D01*
X288709Y93791D01*
X287857Y92680D01*
X287322Y91387D01*
X287139Y90000D01*
X287322Y88613D01*
X287857Y87320D01*
X288709Y86209D01*
X289820Y85357D01*
X290079Y85250D01*
Y84750D01*
X289820Y84643D01*
X288709Y83791D01*
X287857Y82680D01*
X287322Y81388D01*
X287139Y80000D01*
X287322Y78613D01*
X287857Y77320D01*
X288709Y76209D01*
X289820Y75357D01*
X290079Y75250D01*
Y74750D01*
X289820Y74643D01*
X288709Y73791D01*
X287857Y72680D01*
X287322Y71387D01*
X287139Y70000D01*
X287322Y68612D01*
X287857Y67320D01*
X288709Y66209D01*
X289820Y65357D01*
X290079Y65250D01*
Y64750D01*
X289820Y64643D01*
X288709Y63791D01*
X287857Y62680D01*
X287322Y61387D01*
X287139Y60000D01*
X287322Y58613D01*
X287857Y57320D01*
X288709Y56209D01*
X289820Y55357D01*
X290079Y55250D01*
Y54750D01*
X289820Y54643D01*
X288709Y53791D01*
X287857Y52680D01*
X287322Y51388D01*
X287139Y50000D01*
X287322Y48612D01*
X287857Y47320D01*
X288709Y46209D01*
X289820Y45357D01*
X290079Y45250D01*
Y44750D01*
X289820Y44643D01*
X288709Y43791D01*
X287857Y42680D01*
X287322Y41388D01*
X287139Y40000D01*
X287322Y38612D01*
X287857Y37320D01*
X288709Y36209D01*
X289820Y35357D01*
X290079Y35250D01*
Y34750D01*
X289820Y34643D01*
X288709Y33791D01*
X287857Y32680D01*
X287322Y31387D01*
X287139Y30000D01*
X287322Y28613D01*
X287857Y27320D01*
X288709Y26209D01*
X289820Y25357D01*
X290079Y25250D01*
Y24750D01*
X289820Y24643D01*
X288709Y23791D01*
X287857Y22680D01*
X287322Y21387D01*
X287139Y20000D01*
X287322Y18612D01*
X287857Y17320D01*
X288709Y16209D01*
X289820Y15357D01*
X291112Y14822D01*
X292500Y14639D01*
X293887Y14822D01*
X295180Y15357D01*
X296291Y16209D01*
X297143Y17320D01*
X297250Y17579D01*
X297750D01*
X297857Y17320D01*
X298709Y16209D01*
X299820Y15357D01*
X301113Y14822D01*
X302500Y14639D01*
X303888Y14822D01*
X305180Y15357D01*
X306291Y16209D01*
X307143Y17320D01*
X307678Y18612D01*
X307814Y19644D01*
X308174Y19787D01*
X308340Y19806D01*
X309801Y18607D01*
X311510Y17693D01*
X313366Y17131D01*
X315295Y16941D01*
X317225Y17131D01*
X319080Y17693D01*
X320790Y18607D01*
X320840Y18648D01*
X321300Y18452D01*
X321348Y17838D01*
X321854Y15729D01*
X322684Y13725D01*
X323818Y11876D01*
X325226Y10226D01*
X326876Y8818D01*
X328725Y7684D01*
X330729Y6854D01*
X332479Y6434D01*
X332420Y5934D01*
X22580Y5934D01*
X22521Y6434D01*
X24271Y6854D01*
X26275Y7684D01*
X28124Y8818D01*
X29774Y10226D01*
X31182Y11876D01*
X32316Y13725D01*
X33146Y15729D01*
X33652Y17838D01*
X33700Y18452D01*
X34160Y18648D01*
X34210Y18607D01*
X35920Y17693D01*
X37775Y17131D01*
X39705Y16941D01*
X41634Y17131D01*
X43490Y17693D01*
X45199Y18607D01*
X46660Y19806D01*
X46826Y19787D01*
X47186Y19644D01*
X47322Y18612D01*
X47857Y17320D01*
X48709Y16209D01*
X49820Y15357D01*
X51113Y14822D01*
X52500Y14639D01*
X53887Y14822D01*
X55180Y15357D01*
X56291Y16209D01*
X57143Y17320D01*
X57250Y17579D01*
X57750D01*
X57857Y17320D01*
X58709Y16209D01*
X59820Y15357D01*
X61112Y14822D01*
X62500Y14639D01*
X63888Y14822D01*
X65180Y15357D01*
X66291Y16209D01*
X67143Y17320D01*
X67678Y18612D01*
X67861Y20000D01*
X67678Y21387D01*
X67143Y22680D01*
X66291Y23791D01*
X65180Y24643D01*
X64921Y24750D01*
Y25250D01*
X65180Y25357D01*
X66291Y26209D01*
X67143Y27320D01*
X67678Y28613D01*
X67861Y30000D01*
X67678Y31387D01*
X67143Y32680D01*
X66291Y33791D01*
X65180Y34643D01*
X64921Y34750D01*
Y35250D01*
X65180Y35357D01*
X66291Y36209D01*
X67143Y37320D01*
X67678Y38612D01*
X67861Y40000D01*
X67678Y41388D01*
X67143Y42680D01*
X66291Y43791D01*
X65180Y44643D01*
X64921Y44750D01*
Y45250D01*
X65180Y45357D01*
X66291Y46209D01*
X67143Y47320D01*
X67678Y48612D01*
X67861Y50000D01*
X67678Y51388D01*
X67143Y52680D01*
X66291Y53791D01*
X65180Y54643D01*
X64921Y54750D01*
Y55250D01*
X65180Y55357D01*
X66291Y56209D01*
X67143Y57320D01*
X67678Y58613D01*
X67861Y60000D01*
X67678Y61387D01*
X67143Y62680D01*
X66291Y63791D01*
X65180Y64643D01*
X64921Y64750D01*
Y65250D01*
X65180Y65357D01*
X66291Y66209D01*
X67143Y67320D01*
X67678Y68612D01*
X67861Y70000D01*
X67678Y71387D01*
X67143Y72680D01*
X66291Y73791D01*
X65180Y74643D01*
X64921Y74750D01*
Y75250D01*
X65180Y75357D01*
X66291Y76209D01*
X67143Y77320D01*
X67678Y78613D01*
X67861Y80000D01*
X67678Y81388D01*
X67143Y82680D01*
X66291Y83791D01*
X65180Y84643D01*
X64921Y84750D01*
Y85250D01*
X65180Y85357D01*
X66291Y86209D01*
X67143Y87320D01*
X67678Y88613D01*
X67861Y90000D01*
X67678Y91387D01*
X67143Y92680D01*
X66291Y93791D01*
X65180Y94643D01*
X64921Y94750D01*
Y95250D01*
X65180Y95357D01*
X66291Y96209D01*
X67143Y97320D01*
X67678Y98612D01*
X67861Y100000D01*
X67678Y101388D01*
X67143Y102680D01*
X66291Y103791D01*
X65180Y104643D01*
X64921Y104750D01*
Y105250D01*
X65180Y105357D01*
X66291Y106209D01*
X67143Y107320D01*
X67678Y108613D01*
X67861Y110000D01*
X67678Y111388D01*
X67143Y112680D01*
X66291Y113791D01*
X65180Y114643D01*
X64921Y114750D01*
Y115250D01*
X65180Y115357D01*
X66291Y116209D01*
X67143Y117320D01*
X67678Y118613D01*
X67861Y120000D01*
X67678Y121388D01*
X67143Y122680D01*
X66291Y123791D01*
X65180Y124643D01*
X64921Y124750D01*
Y125250D01*
X65180Y125357D01*
X66291Y126209D01*
X67143Y127320D01*
X67678Y128612D01*
X67861Y130000D01*
X67678Y131387D01*
X67143Y132680D01*
X66291Y133791D01*
X65180Y134643D01*
X64921Y134750D01*
Y135250D01*
X65180Y135357D01*
X66291Y136209D01*
X67143Y137320D01*
X67678Y138612D01*
X67861Y140000D01*
X67678Y141387D01*
X67273Y142365D01*
X67607Y142865D01*
X104335D01*
X134991Y112209D01*
Y86207D01*
X134313Y85687D01*
X133597Y84754D01*
X133147Y83666D01*
X132993Y82500D01*
X133147Y81334D01*
X133597Y80247D01*
X134313Y79313D01*
X135247Y78597D01*
X136334Y78146D01*
X137500Y77993D01*
X138666Y78146D01*
X139753Y78597D01*
X140687Y79313D01*
X141403Y80247D01*
X141853Y81334D01*
X142007Y82500D01*
X141853Y83666D01*
X141403Y84754D01*
X140687Y85687D01*
X140009Y86207D01*
Y113248D01*
X139818Y114208D01*
X139274Y115022D01*
X108922Y145374D01*
X129153Y165604D01*
X130000Y165493D01*
X131167Y165647D01*
X132254Y166097D01*
X133187Y166813D01*
X133903Y167746D01*
X134353Y168833D01*
X134507Y170000D01*
X134353Y171167D01*
X133903Y172254D01*
X133187Y173187D01*
X132509Y173707D01*
Y183793D01*
X133187Y184313D01*
X133903Y185247D01*
X134353Y186334D01*
X134507Y187500D01*
X134353Y188666D01*
X133903Y189753D01*
X133187Y190687D01*
X132254Y191403D01*
X131967Y191522D01*
X132067Y192022D01*
X169059D01*
X232920Y128161D01*
D02*
G37*
%LPC*%
G36*
X294823Y281293D02*
X293136Y281160D01*
X291491Y280765D01*
X289928Y280118D01*
X288486Y279234D01*
X287199Y278135D01*
X286101Y276849D01*
X285217Y275406D01*
X284569Y273843D01*
X284174Y272198D01*
X284042Y270512D01*
X284174Y268825D01*
X284569Y267180D01*
X285217Y265617D01*
X286101Y264175D01*
X287199Y262888D01*
X288486Y261790D01*
X289928Y260906D01*
X291491Y260258D01*
X293136Y259863D01*
X294823Y259731D01*
X296509Y259863D01*
X298154Y260258D01*
X299717Y260906D01*
X301160Y261790D01*
X302446Y262888D01*
X303545Y264175D01*
X304429Y265617D01*
X305076Y267180D01*
X305471Y268825D01*
X305604Y270512D01*
X305471Y272198D01*
X305076Y273843D01*
X304429Y275406D01*
X303545Y276849D01*
X302446Y278135D01*
X301160Y279234D01*
X299717Y280118D01*
X298154Y280765D01*
X296509Y281160D01*
X294823Y281293D01*
D02*
G37*
G36*
X260177D02*
X258491Y281160D01*
X256846Y280765D01*
X255283Y280118D01*
X253840Y279234D01*
X252554Y278135D01*
X251455Y276849D01*
X250571Y275406D01*
X249924Y273843D01*
X249529Y272198D01*
X249396Y270512D01*
X249529Y268825D01*
X249924Y267180D01*
X250571Y265617D01*
X251455Y264175D01*
X252554Y262888D01*
X253840Y261790D01*
X255283Y260906D01*
X256846Y260258D01*
X258491Y259863D01*
X260177Y259731D01*
X261864Y259863D01*
X263509Y260258D01*
X265072Y260906D01*
X266514Y261790D01*
X267801Y262888D01*
X268899Y264175D01*
X269783Y265617D01*
X270431Y267180D01*
X270826Y268825D01*
X270958Y270512D01*
X270826Y272198D01*
X270431Y273843D01*
X269783Y275406D01*
X268899Y276849D01*
X267801Y278135D01*
X266514Y279234D01*
X265072Y280118D01*
X263509Y280765D01*
X261864Y281160D01*
X260177Y281293D01*
D02*
G37*
G36*
X94823D02*
X93136Y281160D01*
X91491Y280765D01*
X89928Y280118D01*
X88486Y279234D01*
X87199Y278135D01*
X86101Y276849D01*
X85217Y275406D01*
X84569Y273843D01*
X84174Y272198D01*
X84042Y270512D01*
X84174Y268825D01*
X84569Y267180D01*
X85217Y265617D01*
X86101Y264175D01*
X87199Y262888D01*
X88486Y261790D01*
X89928Y260906D01*
X91491Y260258D01*
X93136Y259863D01*
X94823Y259731D01*
X96509Y259863D01*
X98154Y260258D01*
X99717Y260906D01*
X101160Y261790D01*
X102446Y262888D01*
X103545Y264175D01*
X104429Y265617D01*
X105076Y267180D01*
X105471Y268825D01*
X105604Y270512D01*
X105471Y272198D01*
X105076Y273843D01*
X104429Y275406D01*
X103545Y276849D01*
X102446Y278135D01*
X101160Y279234D01*
X99717Y280118D01*
X98154Y280765D01*
X96509Y281160D01*
X94823Y281293D01*
D02*
G37*
G36*
X60177D02*
X58491Y281160D01*
X56846Y280765D01*
X55283Y280118D01*
X53840Y279234D01*
X52554Y278135D01*
X51455Y276849D01*
X50571Y275406D01*
X49924Y273843D01*
X49529Y272198D01*
X49396Y270512D01*
X49529Y268825D01*
X49924Y267180D01*
X50571Y265617D01*
X51455Y264175D01*
X52554Y262888D01*
X53840Y261790D01*
X55283Y260906D01*
X56846Y260258D01*
X58491Y259863D01*
X60177Y259731D01*
X61864Y259863D01*
X63509Y260258D01*
X65072Y260906D01*
X66514Y261790D01*
X67801Y262888D01*
X68899Y264175D01*
X69783Y265617D01*
X70431Y267180D01*
X70826Y268825D01*
X70958Y270512D01*
X70826Y272198D01*
X70431Y273843D01*
X69783Y275406D01*
X68899Y276849D01*
X67801Y278135D01*
X66514Y279234D01*
X65072Y280118D01*
X63509Y280765D01*
X61864Y281160D01*
X60177Y281293D01*
D02*
G37*
G36*
X287933Y247442D02*
Y243543D01*
X291831D01*
X291754Y244135D01*
X291297Y245236D01*
X290572Y246182D01*
X289626Y246908D01*
X288524Y247364D01*
X287933Y247442D01*
D02*
G37*
G36*
X291831Y242362D02*
X287933D01*
Y238464D01*
X288524Y238542D01*
X289626Y238998D01*
X290572Y239724D01*
X291297Y240669D01*
X291754Y241771D01*
X291831Y242362D01*
D02*
G37*
G36*
X39705Y232390D02*
X37775Y232200D01*
X35920Y231637D01*
X34210Y230723D01*
X32711Y229493D01*
X31481Y227995D01*
X30567Y226285D01*
X30005Y224429D01*
X29815Y222500D01*
X30005Y220570D01*
X30567Y218715D01*
X31481Y217005D01*
X32711Y215507D01*
X34210Y214277D01*
X35920Y213363D01*
X37775Y212800D01*
X39705Y212610D01*
X41634Y212800D01*
X43490Y213363D01*
X45199Y214277D01*
X46698Y215507D01*
X47928Y217005D01*
X48842Y218715D01*
X49405Y220570D01*
X49595Y222500D01*
X49405Y224429D01*
X48842Y226285D01*
X47928Y227995D01*
X46698Y229493D01*
X45199Y230723D01*
X43490Y231637D01*
X41634Y232200D01*
X39705Y232390D01*
D02*
G37*
G36*
X25482Y157963D02*
X13516D01*
Y88016D01*
X25482D01*
Y157963D01*
D02*
G37*
G36*
X91831Y242362D02*
X87933D01*
Y238464D01*
X88525Y238542D01*
X89626Y238998D01*
X90572Y239724D01*
X91297Y240669D01*
X91754Y241771D01*
X91831Y242362D01*
D02*
G37*
G36*
X147500Y174507D02*
X146334Y174354D01*
X145247Y173903D01*
X144313Y173187D01*
X143597Y172254D01*
X143147Y171167D01*
X142993Y170000D01*
X143147Y168833D01*
X143597Y167746D01*
X144313Y166813D01*
X144991Y166293D01*
Y87500D01*
X145182Y86540D01*
X145726Y85726D01*
X153104Y78347D01*
X152993Y77500D01*
X153147Y76333D01*
X153597Y75247D01*
X154313Y74313D01*
X155246Y73597D01*
X156333Y73146D01*
X157500Y72993D01*
X158667Y73146D01*
X159754Y73597D01*
X160687Y74313D01*
X161403Y75247D01*
X161854Y76333D01*
X162007Y77500D01*
X161854Y78667D01*
X161403Y79754D01*
X160687Y80687D01*
X159754Y81403D01*
X158667Y81853D01*
X157500Y82007D01*
X156652Y81896D01*
X150009Y88539D01*
Y166293D01*
X150687Y166813D01*
X151403Y167746D01*
X151854Y168833D01*
X152007Y170000D01*
X151854Y171167D01*
X151403Y172254D01*
X150687Y173187D01*
X149753Y173903D01*
X148667Y174354D01*
X147500Y174507D01*
D02*
G37*
%LPD*%
D12*
X22498Y93999D02*
X23498Y92999D01*
Y91000D01*
X22498Y90000D01*
X21499D01*
X20499Y91000D01*
Y92999D01*
X19499Y93999D01*
X18500D01*
X17500Y92999D01*
Y91000D01*
X18500Y90000D01*
X21499Y96998D02*
Y98997D01*
X20499Y99997D01*
X17500D01*
Y96998D01*
X18500Y95998D01*
X19499Y96998D01*
Y99997D01*
X15501Y103996D02*
Y104995D01*
X16500Y105995D01*
X21499D01*
Y102996D01*
X20499Y101996D01*
X18500D01*
X17500Y102996D01*
Y105995D01*
X23498Y107994D02*
X17500D01*
X20499D01*
X21499Y108994D01*
Y110993D01*
X20499Y111993D01*
X17500D01*
X21499Y113992D02*
X18500D01*
X17500Y114992D01*
Y117991D01*
X16500D01*
X15501Y116991D01*
Y115992D01*
X17500Y117991D02*
X21499D01*
X17500Y125988D02*
X21499D01*
X23498Y127988D01*
X21499Y129987D01*
X17500D01*
X20499D01*
Y125988D01*
X22498Y132986D02*
X21499D01*
Y131986D01*
Y133986D01*
Y132986D01*
X18500D01*
X17500Y133986D01*
X22498Y137985D02*
X21499D01*
Y136985D01*
Y138984D01*
Y137985D01*
X18500D01*
X17500Y138984D01*
Y141983D02*
Y143983D01*
Y142983D01*
X21499D01*
Y141983D01*
X17500Y146982D02*
Y148981D01*
Y147981D01*
X23498D01*
Y146982D01*
X21499Y152980D02*
Y154979D01*
X20499Y155979D01*
X17500D01*
Y152980D01*
X18500Y151980D01*
X19499Y152980D01*
Y155979D01*
D34*
X130000Y170000D02*
Y187500D01*
X137500Y82500D02*
Y113248D01*
X105374Y145374D02*
X137500Y113248D01*
X57874Y145374D02*
X105374D01*
X130000Y170000D01*
X147500Y87500D02*
Y170000D01*
Y87500D02*
X157500Y77500D01*
X277500Y236312D02*
X282500Y231312D01*
Y153458D02*
Y231312D01*
Y153458D02*
X290584Y145374D01*
X102500Y252500D02*
X307500D01*
X337500Y222500D01*
X252500D02*
Y230000D01*
X260000Y237500D01*
X52500Y140000D02*
X57874Y145374D01*
X52500Y190000D02*
X57874Y195374D01*
Y223327D01*
X77500Y242953D01*
X297313Y45187D02*
X302500Y40000D01*
X297313Y45187D02*
Y141729D01*
X293668Y145374D02*
X297313Y141729D01*
X290584Y145374D02*
X293668D01*
X277500Y236312D02*
Y242953D01*
D35*
X292500Y110000D02*
Y120000D01*
D36*
X92500Y207500D02*
X105000Y195000D01*
X92500Y207500D02*
Y222500D01*
X170293Y195000D02*
X235293Y130000D01*
X105000Y195000D02*
X170293D01*
X122800Y67200D02*
X176171D01*
X122500Y67500D02*
X122800Y67200D01*
X235293Y130000D02*
X238971D01*
X282500D01*
X292500D01*
X310340Y212854D02*
X327461D01*
X303795Y219400D02*
X310340Y212854D01*
X286600Y219400D02*
X303795D01*
X327461Y212854D02*
X337500Y202815D01*
X272500Y140000D02*
X282500Y130000D01*
X272500Y140000D02*
Y222500D01*
X176171Y67200D02*
X238971Y130000D01*
D37*
X267657Y242953D02*
X280000Y230610D01*
Y152500D02*
X292500Y140000D01*
X280000Y152500D02*
Y230610D01*
X267205Y242500D02*
X267657Y242953D01*
X170000Y242500D02*
X215000D01*
X267205D01*
X119429Y248071D02*
X125000Y242500D01*
X67658Y242953D02*
X72776Y248071D01*
X119429D01*
X125000Y242500D02*
X170000D01*
D38*
X337500Y222500D02*
D03*
Y212657D02*
D03*
Y202815D02*
D03*
D39*
X272500Y222500D02*
D03*
X262500D02*
D03*
X252500D02*
D03*
X242500D02*
D03*
X232500D02*
D03*
X222500D02*
D03*
X212500D02*
D03*
X202500D02*
D03*
X192500D02*
D03*
X182500D02*
D03*
X172500D02*
D03*
X162500D02*
D03*
X152500D02*
D03*
X142500D02*
D03*
X132500D02*
D03*
X122500D02*
D03*
X112500D02*
D03*
X102500D02*
D03*
X92500D02*
D03*
X82500D02*
D03*
X287343Y242953D02*
D03*
X277500D02*
D03*
X267657D02*
D03*
X87343D02*
D03*
X77500D02*
D03*
X67658D02*
D03*
D40*
X315295Y222500D02*
D03*
X39705D02*
D03*
X315295Y26831D02*
D03*
X39705D02*
D03*
D41*
X294823Y270512D02*
D03*
X260177D02*
D03*
X94823D02*
D03*
X60177D02*
D03*
D42*
X335000Y282500D02*
D03*
Y20000D02*
D03*
X20000D02*
D03*
Y282500D02*
D03*
D43*
X62500Y20000D02*
D03*
X52500D02*
D03*
X302500D02*
D03*
X292500D02*
D03*
Y30000D02*
D03*
X302500D02*
D03*
X292500Y40000D02*
D03*
X302500D02*
D03*
X292500Y50000D02*
D03*
X302500D02*
D03*
X292500Y60000D02*
D03*
X302500D02*
D03*
X292500Y70000D02*
D03*
X302500D02*
D03*
X292500Y80000D02*
D03*
X302500D02*
D03*
X292500Y90000D02*
D03*
X302500D02*
D03*
X292500Y100000D02*
D03*
X302500D02*
D03*
X292500Y110000D02*
D03*
X302500D02*
D03*
X292500Y120000D02*
D03*
X302500D02*
D03*
X292500Y130000D02*
D03*
X302500D02*
D03*
X292500Y140000D02*
D03*
X302500D02*
D03*
X292500Y150000D02*
D03*
X302500D02*
D03*
X292500Y160000D02*
D03*
X302500D02*
D03*
X292500Y170000D02*
D03*
X302500D02*
D03*
X292500Y180000D02*
D03*
X302500D02*
D03*
X292500Y190000D02*
D03*
X302500D02*
D03*
X292500Y200000D02*
D03*
X302500D02*
D03*
X292500Y210000D02*
D03*
X52500Y30000D02*
D03*
X62500D02*
D03*
X52500Y40000D02*
D03*
X62500D02*
D03*
X52500Y50000D02*
D03*
X62500D02*
D03*
X52500Y60000D02*
D03*
X62500D02*
D03*
X52500Y70000D02*
D03*
X62500D02*
D03*
X52500Y80000D02*
D03*
X62500D02*
D03*
X52500Y90000D02*
D03*
X62500D02*
D03*
X52500Y100000D02*
D03*
X62500D02*
D03*
X52500Y110000D02*
D03*
X62500D02*
D03*
X52500Y120000D02*
D03*
X62500D02*
D03*
X52500Y130000D02*
D03*
X62500D02*
D03*
X52500Y140000D02*
D03*
X62500D02*
D03*
X52500Y150000D02*
D03*
X62500D02*
D03*
X52500Y160000D02*
D03*
X62500D02*
D03*
X52500Y170000D02*
D03*
X62500D02*
D03*
X52500Y180000D02*
D03*
X62500D02*
D03*
X52500Y190000D02*
D03*
X62500D02*
D03*
X52500Y200000D02*
D03*
X62500D02*
D03*
X52500Y210000D02*
D03*
D44*
X302500D02*
D03*
X62500D02*
D03*
D45*
X130000Y187500D02*
D03*
X147500Y170000D02*
D03*
X130000D02*
D03*
X147500Y187500D02*
D03*
X105000Y210000D02*
D03*
X122500Y67500D02*
D03*
X105000Y195000D02*
D03*
X157500Y77500D02*
D03*
X110000Y165000D02*
D03*
X286600Y219400D02*
D03*
X102500Y252500D02*
D03*
X260000Y237500D02*
D03*
X125000Y242500D02*
D03*
X170000D02*
D03*
X215000D02*
D03*
X137500Y82500D02*
D03*
M02*
