G04*
G04 #@! TF.GenerationSoftware,Altium Limited,Altium Designer,23.3.1 (30)*
G04*
G04 Layer_Physical_Order=1*
G04 Layer_Color=255*
%FSLAX25Y25*%
%MOIN*%
G70*
G04*
G04 #@! TF.SameCoordinates,9A21843B-87D8-4875-86EA-9B3002E87254*
G04*
G04*
G04 #@! TF.FilePolarity,Positive*
G04*
G01*
G75*
%ADD11C,0.00787*%
%ADD12C,0.01000*%
%ADD28R,0.02500X0.10000*%
%ADD29R,0.10000X0.02500*%
%ADD30R,0.03937X0.05118*%
%ADD31R,0.05512X0.08268*%
%ADD32R,0.05118X0.03937*%
%ADD33R,0.02559X0.04724*%
%ADD34C,0.00984*%
%ADD35C,0.01378*%
%ADD36C,0.01968*%
%ADD37C,0.01575*%
%ADD38C,0.04724*%
%ADD39C,0.07087*%
%ADD40C,0.15748*%
%ADD41C,0.17559*%
%ADD42C,0.23622*%
%ADD43C,0.06693*%
%ADD44R,0.06693X0.06693*%
%ADD45C,0.05000*%
G36*
X332479Y296066D02*
X330729Y295646D01*
X328725Y294816D01*
X326876Y293682D01*
X325226Y292274D01*
X323818Y290624D01*
X322684Y288775D01*
X321854Y286771D01*
X321348Y284662D01*
X321178Y282500D01*
X321348Y280338D01*
X321854Y278229D01*
X322684Y276225D01*
X323818Y274376D01*
X325226Y272726D01*
X326876Y271318D01*
X328725Y270184D01*
X330729Y269354D01*
X332838Y268848D01*
X335000Y268678D01*
X337162Y268848D01*
X339271Y269354D01*
X341275Y270184D01*
X343124Y271318D01*
X344774Y272726D01*
X346182Y274376D01*
X347316Y276225D01*
X348146Y278229D01*
X348566Y279979D01*
X349066Y279920D01*
X349066Y22580D01*
X348566Y22521D01*
X348146Y24271D01*
X347316Y26275D01*
X346182Y28124D01*
X344774Y29774D01*
X343124Y31182D01*
X341275Y32316D01*
X339271Y33146D01*
X337162Y33652D01*
X335000Y33822D01*
X332838Y33652D01*
X330729Y33146D01*
X328725Y32316D01*
X326876Y31182D01*
X325226Y29774D01*
X325167Y29705D01*
X324678Y29807D01*
X324432Y30615D01*
X323519Y32325D01*
X322289Y33824D01*
X320790Y35054D01*
X319080Y35968D01*
X317225Y36531D01*
X315295Y36721D01*
X313366Y36531D01*
X311510Y35968D01*
X309801Y35054D01*
X308302Y33824D01*
X307557Y32917D01*
X306937Y32949D01*
X306291Y33791D01*
X305180Y34643D01*
X304921Y34750D01*
Y35250D01*
X305180Y35357D01*
X306291Y36209D01*
X307143Y37320D01*
X307678Y38612D01*
X307861Y40000D01*
X307678Y41388D01*
X307143Y42680D01*
X306291Y43791D01*
X305180Y44643D01*
X304921Y44750D01*
Y45250D01*
X305180Y45357D01*
X306291Y46209D01*
X307143Y47320D01*
X307678Y48612D01*
X307861Y50000D01*
X307678Y51388D01*
X307143Y52680D01*
X306291Y53791D01*
X305180Y54643D01*
X304921Y54750D01*
Y55250D01*
X305180Y55357D01*
X306291Y56209D01*
X307143Y57320D01*
X307678Y58613D01*
X307861Y60000D01*
X307678Y61387D01*
X307143Y62680D01*
X306291Y63791D01*
X305180Y64643D01*
X304921Y64750D01*
Y65250D01*
X305180Y65357D01*
X306291Y66209D01*
X307143Y67320D01*
X307678Y68612D01*
X307861Y70000D01*
X307678Y71387D01*
X307143Y72680D01*
X306291Y73791D01*
X305180Y74643D01*
X304921Y74750D01*
Y75250D01*
X305180Y75357D01*
X306291Y76209D01*
X307143Y77320D01*
X307678Y78613D01*
X307861Y80000D01*
X307678Y81388D01*
X307143Y82680D01*
X306291Y83791D01*
X305180Y84643D01*
X304921Y84750D01*
Y85250D01*
X305180Y85357D01*
X306291Y86209D01*
X307143Y87320D01*
X307678Y88613D01*
X307861Y90000D01*
X307678Y91387D01*
X307143Y92680D01*
X306291Y93791D01*
X305180Y94643D01*
X304921Y94750D01*
Y95250D01*
X305180Y95357D01*
X306291Y96209D01*
X307143Y97320D01*
X307678Y98612D01*
X307861Y100000D01*
X307678Y101388D01*
X307143Y102680D01*
X306291Y103791D01*
X305180Y104643D01*
X304921Y104750D01*
Y105250D01*
X305180Y105357D01*
X306291Y106209D01*
X307143Y107320D01*
X307678Y108613D01*
X307861Y110000D01*
X307678Y111388D01*
X307143Y112680D01*
X306291Y113791D01*
X305180Y114643D01*
X303888Y115178D01*
X303386Y115244D01*
X303386Y115749D01*
X303630Y115781D01*
X304684Y116217D01*
X305589Y116911D01*
X306283Y117816D01*
X306719Y118869D01*
X306790Y119409D01*
X302500D01*
Y120591D01*
X306790D01*
X306719Y121131D01*
X306283Y122184D01*
X305589Y123089D01*
X304684Y123783D01*
X303630Y124219D01*
X303386Y124251D01*
X303386Y124756D01*
X303888Y124822D01*
X305180Y125357D01*
X306291Y126209D01*
X307143Y127320D01*
X307678Y128612D01*
X307861Y130000D01*
X307678Y131387D01*
X307143Y132680D01*
X306291Y133791D01*
X305180Y134643D01*
X304921Y134750D01*
Y135250D01*
X305180Y135357D01*
X306291Y136209D01*
X307143Y137320D01*
X307678Y138612D01*
X307861Y140000D01*
X307678Y141387D01*
X307143Y142680D01*
X306291Y143791D01*
X305180Y144643D01*
X304921Y144750D01*
Y145250D01*
X305180Y145357D01*
X306291Y146209D01*
X307143Y147320D01*
X307678Y148612D01*
X307861Y150000D01*
X307678Y151388D01*
X307143Y152680D01*
X306291Y153791D01*
X305180Y154643D01*
X304921Y154750D01*
Y155250D01*
X305180Y155357D01*
X306291Y156209D01*
X307143Y157320D01*
X307678Y158613D01*
X307861Y160000D01*
X307678Y161388D01*
X307143Y162680D01*
X306291Y163791D01*
X305180Y164643D01*
X304921Y164750D01*
Y165250D01*
X305180Y165357D01*
X306291Y166209D01*
X307143Y167320D01*
X307678Y168613D01*
X307861Y170000D01*
X307678Y171388D01*
X307143Y172680D01*
X306291Y173791D01*
X305180Y174643D01*
X304921Y174750D01*
Y175250D01*
X305180Y175357D01*
X306291Y176209D01*
X307143Y177320D01*
X307678Y178612D01*
X307861Y180000D01*
X307678Y181387D01*
X307143Y182680D01*
X306291Y183791D01*
X305180Y184643D01*
X304921Y184750D01*
Y185250D01*
X305180Y185357D01*
X306291Y186209D01*
X307143Y187320D01*
X307678Y188612D01*
X307861Y190000D01*
X307678Y191387D01*
X307143Y192680D01*
X306291Y193791D01*
X305180Y194643D01*
X304921Y194750D01*
Y195250D01*
X305180Y195357D01*
X306291Y196209D01*
X307143Y197320D01*
X307678Y198612D01*
X307861Y200000D01*
X307678Y201388D01*
X307143Y202680D01*
X306291Y203791D01*
X305777Y204185D01*
X305946Y204685D01*
X307815D01*
Y215315D01*
X303263D01*
Y221746D01*
X303072Y222706D01*
X302528Y223520D01*
X291774Y234274D01*
X291449Y234491D01*
X291601Y234991D01*
X312201D01*
X314433Y232759D01*
X314264Y232289D01*
X313366Y232200D01*
X311510Y231637D01*
X309801Y230723D01*
X308302Y229493D01*
X307072Y227995D01*
X306158Y226285D01*
X305595Y224429D01*
X305405Y222500D01*
X305595Y220570D01*
X306158Y218715D01*
X307072Y217005D01*
X308302Y215507D01*
X309801Y214277D01*
X311510Y213363D01*
X313366Y212800D01*
X315295Y212610D01*
X317225Y212800D01*
X319080Y213363D01*
X320790Y214277D01*
X322289Y215507D01*
X323519Y217005D01*
X324432Y218715D01*
X324995Y220570D01*
X325084Y221469D01*
X325555Y221638D01*
X333317Y213875D01*
X333281Y213788D01*
X333132Y212657D01*
X333281Y211527D01*
X333717Y210473D01*
X334411Y209569D01*
X335316Y208875D01*
X336369Y208438D01*
X337500Y208289D01*
X338631Y208438D01*
X339684Y208875D01*
X340589Y209569D01*
X341283Y210473D01*
X341719Y211527D01*
X341868Y212657D01*
X341719Y213788D01*
X341283Y214842D01*
X340589Y215746D01*
X339684Y216440D01*
X338631Y216877D01*
X337500Y217026D01*
X337290Y216998D01*
X336533Y217755D01*
X336767Y218228D01*
X337500Y218132D01*
X338631Y218281D01*
X339684Y218717D01*
X340589Y219411D01*
X341283Y220316D01*
X341719Y221370D01*
X341868Y222500D01*
X341719Y223630D01*
X341283Y224684D01*
X340589Y225589D01*
X339684Y226283D01*
X338631Y226719D01*
X337500Y226868D01*
X336369Y226719D01*
X335316Y226283D01*
X334411Y225589D01*
X333717Y224684D01*
X333281Y223630D01*
X333132Y222500D01*
X333228Y221767D01*
X332755Y221533D01*
X315014Y239274D01*
X314200Y239818D01*
X313240Y240009D01*
X291356D01*
X291135Y240457D01*
X291297Y240669D01*
X291754Y241771D01*
X291831Y242362D01*
X287343D01*
Y242953D01*
X286752D01*
Y247442D01*
X286161Y247364D01*
X285059Y246908D01*
X284113Y246182D01*
X283388Y245236D01*
X283225Y244842D01*
X282683D01*
X282315Y245732D01*
X281431Y246884D01*
X280280Y247767D01*
X278939Y248323D01*
X277500Y248512D01*
X276061Y248323D01*
X274720Y247767D01*
X273569Y246884D01*
X272882Y245988D01*
X272276D01*
X271588Y246884D01*
X270437Y247767D01*
X269096Y248323D01*
X267657Y248512D01*
X266219Y248323D01*
X264878Y247767D01*
X263726Y246884D01*
X262843Y245732D01*
X262288Y244392D01*
X262098Y242953D01*
X262230Y241954D01*
X261771Y241603D01*
X261167Y241853D01*
X260000Y242007D01*
X258834Y241853D01*
X257747Y241403D01*
X256813Y240687D01*
X256097Y239754D01*
X255646Y238667D01*
X255493Y237500D01*
X255646Y236333D01*
X255805Y235950D01*
X255382Y235666D01*
X246774Y244274D01*
X245960Y244818D01*
X245000Y245009D01*
X235374D01*
Y245984D01*
X236083D01*
Y251054D01*
X237972D01*
Y249626D01*
X247028D01*
Y257000D01*
X247028Y257500D01*
X247028Y258000D01*
Y265374D01*
X245009D01*
Y269626D01*
X247028D01*
Y277500D01*
X237972D01*
Y269626D01*
X239991D01*
Y265374D01*
X237972D01*
Y258000D01*
X237972Y257500D01*
X237972Y257000D01*
Y256072D01*
X236083D01*
Y258189D01*
X233867D01*
Y281811D01*
X236083D01*
Y294016D01*
X226634D01*
Y281811D01*
X228849D01*
Y258189D01*
X226634D01*
Y247028D01*
X219626D01*
Y245280D01*
X218499D01*
X218187Y245687D01*
X217253Y246403D01*
X216166Y246853D01*
X215000Y247007D01*
X213833Y246853D01*
X212747Y246403D01*
X211813Y245687D01*
X211097Y244754D01*
X210647Y243667D01*
X210493Y242500D01*
X210647Y241334D01*
X211097Y240247D01*
X211813Y239313D01*
X212747Y238597D01*
X213833Y238146D01*
X215000Y237993D01*
X216166Y238146D01*
X217253Y238597D01*
X218187Y239313D01*
X218499Y239720D01*
X219626D01*
Y237972D01*
X227000D01*
X227500Y237972D01*
Y237972D01*
X227500D01*
Y237972D01*
X235374D01*
Y239991D01*
X243961D01*
X250981Y232971D01*
X250790Y232509D01*
X213539D01*
X201774Y244274D01*
X200960Y244818D01*
X200000Y245009D01*
X190374D01*
Y245984D01*
X191083D01*
Y251054D01*
X192973D01*
Y249626D01*
X202028D01*
Y257000D01*
X202028Y257500D01*
X202028Y258000D01*
Y265374D01*
X200009D01*
Y269626D01*
X202028D01*
Y277500D01*
X192973D01*
Y269626D01*
X194991D01*
Y265374D01*
X192973D01*
Y258000D01*
X192972Y257500D01*
X192973Y257000D01*
Y256072D01*
X191083D01*
Y258189D01*
X188867D01*
Y281811D01*
X191083D01*
Y294016D01*
X181634D01*
Y281811D01*
X183849D01*
Y258189D01*
X181634D01*
Y247028D01*
X174626D01*
Y245280D01*
X173500D01*
X173187Y245687D01*
X172254Y246403D01*
X171167Y246853D01*
X170000Y247007D01*
X168833Y246853D01*
X167746Y246403D01*
X166813Y245687D01*
X166097Y244754D01*
X165647Y243667D01*
X165493Y242500D01*
X165647Y241334D01*
X166097Y240247D01*
X166813Y239313D01*
X167746Y238597D01*
X168833Y238146D01*
X170000Y237993D01*
X171167Y238146D01*
X172254Y238597D01*
X173187Y239313D01*
X173500Y239720D01*
X174626D01*
Y237972D01*
X182000D01*
X182500Y237972D01*
Y237972D01*
X182500D01*
Y237972D01*
X190374D01*
Y239991D01*
X198961D01*
X208481Y230471D01*
X208290Y230009D01*
X171039D01*
X156774Y244274D01*
X155960Y244818D01*
X155000Y245009D01*
X145374D01*
Y245984D01*
X146083D01*
Y251054D01*
X147973D01*
Y249626D01*
X157027D01*
Y257000D01*
X157028Y257500D01*
X157027Y258000D01*
Y265374D01*
X155009D01*
Y269626D01*
X157027D01*
Y277500D01*
X147973D01*
Y269626D01*
X149991D01*
Y265374D01*
X147973D01*
Y258000D01*
X147972Y257500D01*
X147973Y257000D01*
Y256072D01*
X146083D01*
Y258189D01*
X143867D01*
Y281811D01*
X146083D01*
Y294016D01*
X136634D01*
Y281811D01*
X138849D01*
Y258189D01*
X136634D01*
Y247028D01*
X129626D01*
Y245280D01*
X128499D01*
X128187Y245687D01*
X127253Y246403D01*
X126166Y246853D01*
X125000Y247007D01*
X123834Y246853D01*
X122747Y246403D01*
X121813Y245687D01*
X121097Y244754D01*
X120647Y243667D01*
X120493Y242500D01*
X120647Y241334D01*
X121097Y240247D01*
X121813Y239313D01*
X122747Y238597D01*
X123834Y238146D01*
X125000Y237993D01*
X126166Y238146D01*
X127253Y238597D01*
X128187Y239313D01*
X128499Y239720D01*
X129626D01*
Y237972D01*
X137000D01*
X137500Y237972D01*
Y237972D01*
X137500D01*
Y237972D01*
X145374D01*
Y239991D01*
X153961D01*
X168114Y225838D01*
X167796Y225424D01*
X167661Y225383D01*
X167339D01*
X167204Y225424D01*
X166431Y226431D01*
X165280Y227315D01*
X163939Y227870D01*
X162500Y228059D01*
X161061Y227870D01*
X159720Y227315D01*
X158569Y226431D01*
X157796Y225424D01*
X157661Y225383D01*
X157339D01*
X157204Y225424D01*
X156431Y226431D01*
X155280Y227315D01*
X153939Y227870D01*
X152500Y228059D01*
X151061Y227870D01*
X149720Y227315D01*
X148569Y226431D01*
X147796Y225424D01*
X147661Y225383D01*
X147339D01*
X147204Y225424D01*
X146431Y226431D01*
X145280Y227315D01*
X143939Y227870D01*
X142500Y228059D01*
X141061Y227870D01*
X140790Y227758D01*
X139274Y229274D01*
X138460Y229818D01*
X137500Y230009D01*
X126039D01*
X112509Y243539D01*
Y249626D01*
X114527D01*
Y257500D01*
X105473D01*
Y256417D01*
X105024Y256196D01*
X104753Y256403D01*
X103666Y256854D01*
X102500Y257007D01*
X101333Y256854D01*
X100247Y256403D01*
X99313Y255687D01*
X98597Y254753D01*
X98146Y253666D01*
X97993Y252500D01*
X98146Y251333D01*
X98597Y250247D01*
X99313Y249313D01*
X99991Y248793D01*
Y227427D01*
X99720Y227315D01*
X98569Y226431D01*
X97796Y225424D01*
X97661Y225383D01*
X97339D01*
X97204Y225424D01*
X96431Y226431D01*
X95280Y227315D01*
X93939Y227870D01*
X92500Y228059D01*
X91061Y227870D01*
X89720Y227315D01*
X88569Y226431D01*
X87796Y225424D01*
X87661Y225383D01*
X87339D01*
X87204Y225424D01*
X86431Y226431D01*
X85280Y227315D01*
X83939Y227870D01*
X82500Y228059D01*
X81061Y227870D01*
X79720Y227315D01*
X78569Y226431D01*
X77685Y225280D01*
X77130Y223939D01*
X76941Y222500D01*
X77130Y221061D01*
X77685Y219720D01*
X78569Y218569D01*
X79720Y217685D01*
X79991Y217573D01*
Y199068D01*
X79529Y198877D01*
X69656Y208750D01*
X68875Y209272D01*
X67953Y209456D01*
X67815D01*
Y215315D01*
X57185D01*
Y213446D01*
X56685Y213277D01*
X56291Y213791D01*
X55180Y214643D01*
X53887Y215178D01*
X52500Y215361D01*
X51113Y215178D01*
X49820Y214643D01*
X48709Y213791D01*
X47857Y212680D01*
X47322Y211387D01*
X47139Y210000D01*
X47322Y208612D01*
X47857Y207320D01*
X48709Y206209D01*
X49820Y205357D01*
X50079Y205250D01*
Y204750D01*
X49820Y204643D01*
X48709Y203791D01*
X47857Y202680D01*
X47322Y201388D01*
X47139Y200000D01*
X47322Y198612D01*
X47857Y197320D01*
X48709Y196209D01*
X49820Y195357D01*
X50079Y195250D01*
Y194750D01*
X49820Y194643D01*
X48709Y193791D01*
X47857Y192680D01*
X47322Y191387D01*
X47139Y190000D01*
X47322Y188612D01*
X47857Y187320D01*
X48709Y186209D01*
X49820Y185357D01*
X50079Y185250D01*
Y184750D01*
X49820Y184643D01*
X48709Y183791D01*
X47857Y182680D01*
X47322Y181387D01*
X47139Y180000D01*
X47322Y178612D01*
X47857Y177320D01*
X48709Y176209D01*
X49820Y175357D01*
X50079Y175250D01*
Y174750D01*
X49820Y174643D01*
X48709Y173791D01*
X47857Y172680D01*
X47322Y171388D01*
X47139Y170000D01*
X47322Y168613D01*
X47857Y167320D01*
X48709Y166209D01*
X49820Y165357D01*
X50079Y165250D01*
Y164750D01*
X49820Y164643D01*
X48709Y163791D01*
X47857Y162680D01*
X47322Y161388D01*
X47139Y160000D01*
X47322Y158613D01*
X47857Y157320D01*
X48709Y156209D01*
X49820Y155357D01*
X50079Y155250D01*
Y154750D01*
X49820Y154643D01*
X48709Y153791D01*
X47857Y152680D01*
X47322Y151388D01*
X47139Y150000D01*
X47322Y148612D01*
X47857Y147320D01*
X48709Y146209D01*
X49820Y145357D01*
X50079Y145250D01*
Y144750D01*
X49820Y144643D01*
X48709Y143791D01*
X47857Y142680D01*
X47322Y141387D01*
X47139Y140000D01*
X47322Y138612D01*
X47857Y137320D01*
X48709Y136209D01*
X49820Y135357D01*
X50079Y135250D01*
Y134750D01*
X49820Y134643D01*
X48709Y133791D01*
X47857Y132680D01*
X47322Y131387D01*
X47139Y130000D01*
X47322Y128612D01*
X47857Y127320D01*
X48709Y126209D01*
X49820Y125357D01*
X51113Y124822D01*
X51614Y124756D01*
X51614Y124251D01*
X51370Y124219D01*
X50316Y123783D01*
X49411Y123089D01*
X48717Y122184D01*
X48281Y121131D01*
X48210Y120591D01*
X52500D01*
Y119409D01*
X48210D01*
X48281Y118869D01*
X48717Y117816D01*
X49411Y116911D01*
X50316Y116217D01*
X51370Y115781D01*
X51614Y115749D01*
X51614Y115244D01*
X51113Y115178D01*
X49820Y114643D01*
X48709Y113791D01*
X47857Y112680D01*
X47322Y111388D01*
X47139Y110000D01*
X47322Y108613D01*
X47857Y107320D01*
X48709Y106209D01*
X49820Y105357D01*
X50079Y105250D01*
Y104750D01*
X49820Y104643D01*
X48709Y103791D01*
X47857Y102680D01*
X47322Y101388D01*
X47139Y100000D01*
X47322Y98612D01*
X47857Y97320D01*
X48709Y96209D01*
X49820Y95357D01*
X50079Y95250D01*
Y94750D01*
X49820Y94643D01*
X48709Y93791D01*
X47857Y92680D01*
X47322Y91387D01*
X47139Y90000D01*
X47322Y88613D01*
X47857Y87320D01*
X48709Y86209D01*
X49820Y85357D01*
X50079Y85250D01*
Y84750D01*
X49820Y84643D01*
X48709Y83791D01*
X47857Y82680D01*
X47322Y81388D01*
X47139Y80000D01*
X47322Y78613D01*
X47857Y77320D01*
X48709Y76209D01*
X49820Y75357D01*
X50079Y75250D01*
Y74750D01*
X49820Y74643D01*
X48709Y73791D01*
X47857Y72680D01*
X47322Y71387D01*
X47139Y70000D01*
X47322Y68612D01*
X47857Y67320D01*
X48709Y66209D01*
X49820Y65357D01*
X51113Y64822D01*
X51614Y64756D01*
X51614Y64252D01*
X51370Y64219D01*
X50316Y63783D01*
X49411Y63089D01*
X48717Y62184D01*
X48281Y61130D01*
X48210Y60590D01*
X52500D01*
Y59409D01*
X48210D01*
X48281Y58869D01*
X48717Y57816D01*
X49411Y56911D01*
X50316Y56217D01*
X51370Y55781D01*
X51614Y55748D01*
X51614Y55244D01*
X51113Y55178D01*
X49820Y54643D01*
X48709Y53791D01*
X47857Y52680D01*
X47322Y51388D01*
X47139Y50000D01*
X47322Y48612D01*
X47857Y47320D01*
X48709Y46209D01*
X49820Y45357D01*
X50079Y45250D01*
Y44750D01*
X49820Y44643D01*
X48709Y43791D01*
X47857Y42680D01*
X47322Y41388D01*
X47139Y40000D01*
X47322Y38612D01*
X47857Y37320D01*
X48709Y36209D01*
X49820Y35357D01*
X50079Y35250D01*
Y34750D01*
X49820Y34643D01*
X48709Y33791D01*
X48063Y32949D01*
X47442Y32917D01*
X46698Y33824D01*
X45199Y35054D01*
X43490Y35968D01*
X41634Y36531D01*
X39705Y36721D01*
X37775Y36531D01*
X35920Y35968D01*
X34210Y35054D01*
X32711Y33824D01*
X31481Y32325D01*
X30567Y30615D01*
X30322Y29807D01*
X29833Y29705D01*
X29774Y29774D01*
X28124Y31182D01*
X26275Y32316D01*
X24271Y33146D01*
X22162Y33652D01*
X20000Y33822D01*
X17838Y33652D01*
X15729Y33146D01*
X13725Y32316D01*
X11876Y31182D01*
X10226Y29774D01*
X8818Y28124D01*
X7684Y26275D01*
X6854Y24271D01*
X6434Y22521D01*
X5934Y22580D01*
X5934Y279920D01*
X6434Y279979D01*
X6854Y278229D01*
X7684Y276225D01*
X8818Y274376D01*
X10226Y272726D01*
X11876Y271318D01*
X13725Y270184D01*
X15729Y269354D01*
X17838Y268848D01*
X20000Y268678D01*
X22162Y268848D01*
X24271Y269354D01*
X26275Y270184D01*
X28124Y271318D01*
X29774Y272726D01*
X31182Y274376D01*
X32316Y276225D01*
X33146Y278229D01*
X33652Y280338D01*
X33822Y282500D01*
X33652Y284662D01*
X33146Y286771D01*
X32316Y288775D01*
X31182Y290624D01*
X29774Y292274D01*
X28124Y293682D01*
X26275Y294816D01*
X24271Y295646D01*
X22521Y296066D01*
X22580Y296566D01*
X332420Y296566D01*
X332479Y296066D01*
D02*
G37*
G36*
X263090Y218011D02*
X263682Y218089D01*
X264783Y218545D01*
X265729Y219271D01*
X266455Y220217D01*
X266697Y220801D01*
X267238D01*
X267685Y219720D01*
X268569Y218569D01*
X268990Y218246D01*
Y212028D01*
X267500D01*
Y202973D01*
X275374D01*
Y212028D01*
X274947D01*
Y217548D01*
X275280Y217685D01*
X276431Y218569D01*
X277162Y219522D01*
X281446D01*
X282173Y218795D01*
X282246Y218233D01*
X282697Y217146D01*
X283413Y216213D01*
X284347Y215497D01*
X285434Y215047D01*
X286600Y214893D01*
X287767Y215047D01*
X288399Y215308D01*
X288899Y214974D01*
Y213936D01*
X288709Y213791D01*
X287857Y212680D01*
X287322Y211387D01*
X287139Y210000D01*
X287322Y208612D01*
X287857Y207320D01*
X288709Y206209D01*
X289820Y205357D01*
X290079Y205250D01*
Y204750D01*
X289820Y204643D01*
X288709Y203791D01*
X287857Y202680D01*
X287322Y201388D01*
X287139Y200000D01*
X287322Y198612D01*
X287857Y197320D01*
X288709Y196209D01*
X289820Y195357D01*
X290079Y195250D01*
Y194750D01*
X289820Y194643D01*
X288709Y193791D01*
X287857Y192680D01*
X287322Y191387D01*
X287139Y190000D01*
X287322Y188612D01*
X287857Y187320D01*
X288709Y186209D01*
X289820Y185357D01*
X291112Y184822D01*
X291614Y184756D01*
X291614Y184251D01*
X291370Y184219D01*
X290316Y183783D01*
X289411Y183089D01*
X288717Y182184D01*
X288281Y181131D01*
X288210Y180591D01*
X292500D01*
Y179409D01*
X288210D01*
X288281Y178869D01*
X288717Y177816D01*
X289411Y176911D01*
X290316Y176217D01*
X291370Y175781D01*
X291614Y175749D01*
X291614Y175244D01*
X291112Y175178D01*
X289820Y174643D01*
X288709Y173791D01*
X287857Y172680D01*
X287322Y171388D01*
X287139Y170000D01*
X287322Y168613D01*
X287857Y167320D01*
X288709Y166209D01*
X289820Y165357D01*
X290079Y165250D01*
Y164750D01*
X289820Y164643D01*
X288709Y163791D01*
X287857Y162680D01*
X287322Y161388D01*
X287139Y160000D01*
X287322Y158613D01*
X287857Y157320D01*
X288709Y156209D01*
X289820Y155357D01*
X290079Y155250D01*
Y154750D01*
X289820Y154643D01*
X288709Y153791D01*
X287857Y152680D01*
X287322Y151388D01*
X287139Y150000D01*
X287322Y148612D01*
X287857Y147320D01*
X288709Y146209D01*
X289820Y145357D01*
X290079Y145250D01*
Y144750D01*
X289820Y144643D01*
X288709Y143791D01*
X287857Y142680D01*
X287322Y141387D01*
X287139Y140000D01*
X287322Y138612D01*
X287857Y137320D01*
X288709Y136209D01*
X289820Y135357D01*
X290079Y135250D01*
Y134750D01*
X289820Y134643D01*
X288709Y133791D01*
X287857Y132680D01*
X287322Y131387D01*
X287139Y130000D01*
X287322Y128612D01*
X287857Y127320D01*
X288709Y126209D01*
X289820Y125357D01*
X291112Y124822D01*
X291614Y124756D01*
X291614Y124251D01*
X291370Y124219D01*
X290316Y123783D01*
X289411Y123089D01*
X288717Y122184D01*
X288281Y121131D01*
X288210Y120591D01*
X292500D01*
Y119409D01*
X288210D01*
X288281Y118869D01*
X288717Y117816D01*
X289411Y116911D01*
X289820Y116598D01*
Y113402D01*
X289411Y113089D01*
X288717Y112184D01*
X288281Y111130D01*
X288210Y110591D01*
X292500D01*
Y109409D01*
X288210D01*
X288281Y108870D01*
X288717Y107816D01*
X289411Y106911D01*
X290316Y106217D01*
X291370Y105781D01*
X291614Y105748D01*
X291614Y105244D01*
X291112Y105178D01*
X289820Y104643D01*
X288709Y103791D01*
X287857Y102680D01*
X287322Y101388D01*
X287139Y100000D01*
X287322Y98612D01*
X287857Y97320D01*
X288709Y96209D01*
X289820Y95357D01*
X290079Y95250D01*
Y94750D01*
X289820Y94643D01*
X288709Y93791D01*
X287857Y92680D01*
X287322Y91387D01*
X287139Y90000D01*
X287322Y88613D01*
X287857Y87320D01*
X288709Y86209D01*
X289820Y85357D01*
X290079Y85250D01*
Y84750D01*
X289820Y84643D01*
X288709Y83791D01*
X287857Y82680D01*
X287322Y81388D01*
X287139Y80000D01*
X287322Y78613D01*
X287857Y77320D01*
X288709Y76209D01*
X289820Y75357D01*
X290079Y75250D01*
Y74750D01*
X289820Y74643D01*
X288709Y73791D01*
X287857Y72680D01*
X287322Y71387D01*
X287139Y70000D01*
X287322Y68612D01*
X287857Y67320D01*
X288709Y66209D01*
X289820Y65357D01*
X290079Y65250D01*
Y64750D01*
X289820Y64643D01*
X288709Y63791D01*
X287857Y62680D01*
X287322Y61387D01*
X287139Y60000D01*
X287322Y58613D01*
X287857Y57320D01*
X288709Y56209D01*
X289820Y55357D01*
X290079Y55250D01*
Y54750D01*
X289820Y54643D01*
X288709Y53791D01*
X287857Y52680D01*
X287322Y51388D01*
X287139Y50000D01*
X287322Y48612D01*
X287857Y47320D01*
X288709Y46209D01*
X289820Y45357D01*
X290079Y45250D01*
Y44750D01*
X289820Y44643D01*
X288709Y43791D01*
X287857Y42680D01*
X287322Y41388D01*
X287139Y40000D01*
X287322Y38612D01*
X287857Y37320D01*
X288709Y36209D01*
X289820Y35357D01*
X290079Y35250D01*
Y34750D01*
X289820Y34643D01*
X288709Y33791D01*
X287857Y32680D01*
X287322Y31387D01*
X287139Y30000D01*
X287322Y28613D01*
X287857Y27320D01*
X288709Y26209D01*
X289820Y25357D01*
X290079Y25250D01*
Y24750D01*
X289820Y24643D01*
X288709Y23791D01*
X287857Y22680D01*
X287322Y21387D01*
X287139Y20000D01*
X287322Y18612D01*
X287857Y17320D01*
X288709Y16209D01*
X289820Y15357D01*
X291112Y14822D01*
X292500Y14639D01*
X293887Y14822D01*
X295180Y15357D01*
X296291Y16209D01*
X297143Y17320D01*
X297250Y17579D01*
X297750D01*
X297857Y17320D01*
X298709Y16209D01*
X299820Y15357D01*
X301113Y14822D01*
X302500Y14639D01*
X303888Y14822D01*
X305180Y15357D01*
X306291Y16209D01*
X307143Y17320D01*
X307678Y18612D01*
X307814Y19644D01*
X308174Y19787D01*
X308340Y19806D01*
X309801Y18607D01*
X311510Y17693D01*
X313366Y17131D01*
X315295Y16941D01*
X317225Y17131D01*
X319080Y17693D01*
X320790Y18607D01*
X320840Y18648D01*
X321300Y18452D01*
X321348Y17838D01*
X321854Y15729D01*
X322684Y13725D01*
X323818Y11876D01*
X325226Y10226D01*
X326876Y8818D01*
X328725Y7684D01*
X330729Y6854D01*
X332479Y6434D01*
X332420Y5934D01*
X22580Y5934D01*
X22521Y6434D01*
X24271Y6854D01*
X26275Y7684D01*
X28124Y8818D01*
X29774Y10226D01*
X31182Y11876D01*
X32316Y13725D01*
X33146Y15729D01*
X33652Y17838D01*
X33700Y18452D01*
X34160Y18648D01*
X34210Y18607D01*
X35920Y17693D01*
X37775Y17131D01*
X39705Y16941D01*
X41634Y17131D01*
X43490Y17693D01*
X45199Y18607D01*
X46660Y19806D01*
X46826Y19787D01*
X47186Y19644D01*
X47322Y18612D01*
X47857Y17320D01*
X48709Y16209D01*
X49820Y15357D01*
X51113Y14822D01*
X52500Y14639D01*
X53887Y14822D01*
X55180Y15357D01*
X56291Y16209D01*
X57143Y17320D01*
X57250Y17579D01*
X57750D01*
X57857Y17320D01*
X58709Y16209D01*
X59820Y15357D01*
X61112Y14822D01*
X62500Y14639D01*
X63888Y14822D01*
X65180Y15357D01*
X66291Y16209D01*
X67143Y17320D01*
X67678Y18612D01*
X67861Y20000D01*
X67678Y21387D01*
X67143Y22680D01*
X66291Y23791D01*
X65180Y24643D01*
X64921Y24750D01*
Y25250D01*
X65180Y25357D01*
X66291Y26209D01*
X67143Y27320D01*
X67678Y28613D01*
X67861Y30000D01*
X67678Y31387D01*
X67143Y32680D01*
X66291Y33791D01*
X65180Y34643D01*
X64921Y34750D01*
Y35250D01*
X65180Y35357D01*
X66291Y36209D01*
X67143Y37320D01*
X67678Y38612D01*
X67861Y40000D01*
X67678Y41388D01*
X67143Y42680D01*
X66291Y43791D01*
X65180Y44643D01*
X64921Y44750D01*
Y45250D01*
X65180Y45357D01*
X66291Y46209D01*
X67143Y47320D01*
X67678Y48612D01*
X67861Y50000D01*
X67678Y51388D01*
X67143Y52680D01*
X66291Y53791D01*
X65180Y54643D01*
X64921Y54750D01*
Y55250D01*
X65180Y55357D01*
X66291Y56209D01*
X67143Y57320D01*
X67678Y58613D01*
X67861Y60000D01*
X67678Y61387D01*
X67143Y62680D01*
X66291Y63791D01*
X65180Y64643D01*
X64921Y64750D01*
Y65250D01*
X65180Y65357D01*
X66291Y66209D01*
X67143Y67320D01*
X67214Y67491D01*
X79626D01*
Y65473D01*
X87000D01*
X87500Y65472D01*
Y65472D01*
X87500D01*
Y65473D01*
X95374D01*
Y67491D01*
X102500D01*
X103460Y67682D01*
X104274Y68226D01*
X121039Y84991D01*
X121731D01*
Y79282D01*
Y74282D01*
X128085D01*
Y72027D01*
X127126D01*
Y70478D01*
X125847D01*
X125687Y70687D01*
X124753Y71403D01*
X123667Y71854D01*
X122500Y72007D01*
X121334Y71854D01*
X120247Y71403D01*
X119313Y70687D01*
X118597Y69753D01*
X118147Y68666D01*
X117993Y67500D01*
X118147Y66334D01*
X118597Y65246D01*
X119313Y64313D01*
X120247Y63597D01*
X121334Y63147D01*
X122500Y62993D01*
X123667Y63147D01*
X124753Y63597D01*
X125687Y64313D01*
X125847Y64522D01*
X127126D01*
Y62972D01*
X128085D01*
Y62028D01*
X127126D01*
Y52973D01*
X135000D01*
Y52972D01*
X135000Y52972D01*
X135500Y52973D01*
X142874D01*
Y62028D01*
X141108D01*
X140637Y62733D01*
X138001Y65369D01*
Y78059D01*
X138666Y78146D01*
X139753Y78597D01*
X140687Y79313D01*
X141403Y80247D01*
X141853Y81334D01*
X142007Y82500D01*
X141853Y83666D01*
X141403Y84754D01*
X140687Y85687D01*
X139753Y86403D01*
X138666Y86853D01*
X137500Y87007D01*
X136334Y86853D01*
X136084Y86750D01*
X135669Y87028D01*
Y89281D01*
Y94282D01*
Y99282D01*
Y104281D01*
Y109282D01*
Y114281D01*
Y119281D01*
Y125718D01*
X121731D01*
Y125009D01*
X121039D01*
X104274Y141774D01*
X103949Y141991D01*
X104101Y142491D01*
X147500D01*
X148460Y142682D01*
X149274Y143226D01*
X159274Y153226D01*
X159818Y154040D01*
X159856Y154232D01*
X165718D01*
Y164671D01*
X179274Y178226D01*
X179818Y179040D01*
X180009Y180000D01*
Y203290D01*
X180471Y203481D01*
X187491Y196461D01*
Y136039D01*
X172170Y120719D01*
X159332D01*
Y114281D01*
Y109282D01*
Y104281D01*
Y99282D01*
Y94282D01*
Y89281D01*
Y84281D01*
Y82028D01*
X158916Y81750D01*
X158667Y81853D01*
X157500Y82007D01*
X156333Y81853D01*
X155246Y81403D01*
X154313Y80687D01*
X153597Y79754D01*
X153147Y78667D01*
X152993Y77500D01*
X153147Y76333D01*
X153597Y75247D01*
X154313Y74313D01*
X155246Y73597D01*
X156333Y73146D01*
X157500Y72993D01*
X158667Y73146D01*
X159754Y73597D01*
X160646Y74282D01*
X173268D01*
Y79991D01*
X190000D01*
X190960Y80182D01*
X191774Y80726D01*
X226774Y115726D01*
X227318Y116540D01*
X227509Y117500D01*
Y196461D01*
X244274Y213226D01*
X244818Y214040D01*
X245009Y215000D01*
Y217573D01*
X245280Y217685D01*
X246431Y218569D01*
X247204Y219576D01*
X247339Y219617D01*
X247661D01*
X247796Y219576D01*
X248569Y218569D01*
X249720Y217685D01*
X251061Y217130D01*
X252500Y216941D01*
X253939Y217130D01*
X255280Y217685D01*
X256431Y218569D01*
X257314Y219720D01*
X257762Y220801D01*
X258303D01*
X258545Y220217D01*
X259271Y219271D01*
X260217Y218545D01*
X261318Y218089D01*
X261909Y218011D01*
Y222500D01*
X263090D01*
Y218011D01*
D02*
G37*
G36*
X97796Y219576D02*
X98569Y218569D01*
X99720Y217685D01*
X101061Y217130D01*
X102500Y216941D01*
X103939Y217130D01*
X105280Y217685D01*
X106431Y218569D01*
X107204Y219576D01*
X107339Y219617D01*
X107661D01*
X107796Y219576D01*
X108569Y218569D01*
X109720Y217685D01*
X111061Y217130D01*
X112500Y216941D01*
X113939Y217130D01*
X115280Y217685D01*
X115838Y218114D01*
X127722Y206230D01*
X127530Y205768D01*
X119281D01*
Y199041D01*
X117027D01*
Y200000D01*
X107973D01*
Y199041D01*
X106920D01*
X106167Y199354D01*
X105000Y199507D01*
X103833Y199354D01*
X102746Y198903D01*
X101813Y198187D01*
X101097Y197254D01*
X100646Y196167D01*
X100493Y195000D01*
X100646Y193833D01*
X101097Y192746D01*
X101813Y191813D01*
X102746Y191097D01*
X103833Y190647D01*
X105000Y190493D01*
X106167Y190647D01*
X107254Y191097D01*
X108187Y191813D01*
X108427Y192126D01*
X117027D01*
Y193085D01*
X119281D01*
Y191832D01*
X124991D01*
Y190623D01*
X125182Y189663D01*
X125724Y188853D01*
X125646Y188666D01*
X125493Y187500D01*
X125646Y186334D01*
X126097Y185247D01*
X126813Y184313D01*
X127746Y183597D01*
X128833Y183147D01*
X129879Y183009D01*
X129847Y182509D01*
X127500D01*
X126540Y182318D01*
X125726Y181774D01*
X115726Y171774D01*
X115182Y170960D01*
X114991Y170000D01*
Y161039D01*
X113961Y160009D01*
X92588D01*
X92500Y160473D01*
X92500D01*
Y166234D01*
X92548Y166476D01*
Y166973D01*
X96048Y170473D01*
X100374D01*
Y170472D01*
X100512Y170445D01*
X100512Y170445D01*
X100863Y170445D01*
X107008D01*
Y179106D01*
X100512D01*
X100374Y179527D01*
X93000D01*
X92500Y179528D01*
Y179528D01*
X92500D01*
Y179527D01*
X84626D01*
Y179528D01*
X84330Y179405D01*
X82408Y181327D01*
Y187544D01*
X82870Y187735D01*
X84626Y185979D01*
Y180473D01*
X92000D01*
X92500Y180472D01*
X93000Y180473D01*
X100374D01*
Y182716D01*
X104252D01*
Y180894D01*
X110748D01*
Y189555D01*
X104252D01*
Y187733D01*
X100374D01*
Y189527D01*
X93000D01*
X92500Y189528D01*
X92000Y189527D01*
X88174D01*
X85009Y192693D01*
Y217573D01*
X85280Y217685D01*
X86431Y218569D01*
X87204Y219576D01*
X87339Y219617D01*
X87661D01*
X87796Y219576D01*
X88569Y218569D01*
X89720Y217685D01*
X91061Y217130D01*
X92500Y216941D01*
X93939Y217130D01*
X95280Y217685D01*
X96431Y218569D01*
X97204Y219576D01*
X97339Y219617D01*
X97661D01*
X97796Y219576D01*
D02*
G37*
G36*
X139281Y191832D02*
X145719D01*
Y203800D01*
X149282D01*
Y191832D01*
X154991D01*
Y183539D01*
X153961Y182509D01*
X130154D01*
X130121Y183009D01*
X131167Y183147D01*
X132254Y183597D01*
X133187Y184313D01*
X133903Y185247D01*
X134353Y186334D01*
X134507Y187500D01*
X134353Y188666D01*
X133903Y189753D01*
X133187Y190687D01*
X132347Y191332D01*
X132440Y191832D01*
X135719D01*
Y203800D01*
X139281D01*
Y191832D01*
D02*
G37*
%LPC*%
G36*
X294823Y281293D02*
X293136Y281160D01*
X291491Y280765D01*
X289928Y280118D01*
X288486Y279234D01*
X287199Y278135D01*
X286101Y276849D01*
X285217Y275406D01*
X284569Y273843D01*
X284174Y272198D01*
X284042Y270512D01*
X284174Y268825D01*
X284569Y267180D01*
X285217Y265617D01*
X286101Y264175D01*
X287199Y262888D01*
X288486Y261790D01*
X289928Y260906D01*
X291491Y260258D01*
X293136Y259863D01*
X294823Y259731D01*
X296509Y259863D01*
X298154Y260258D01*
X299717Y260906D01*
X301160Y261790D01*
X302446Y262888D01*
X303545Y264175D01*
X304429Y265617D01*
X305076Y267180D01*
X305471Y268825D01*
X305604Y270512D01*
X305471Y272198D01*
X305076Y273843D01*
X304429Y275406D01*
X303545Y276849D01*
X302446Y278135D01*
X301160Y279234D01*
X299717Y280118D01*
X298154Y280765D01*
X296509Y281160D01*
X294823Y281293D01*
D02*
G37*
G36*
X260177D02*
X258491Y281160D01*
X256846Y280765D01*
X255283Y280118D01*
X253840Y279234D01*
X252554Y278135D01*
X251455Y276849D01*
X250571Y275406D01*
X249924Y273843D01*
X249529Y272198D01*
X249396Y270512D01*
X249529Y268825D01*
X249924Y267180D01*
X250571Y265617D01*
X251455Y264175D01*
X252554Y262888D01*
X253840Y261790D01*
X255283Y260906D01*
X256846Y260258D01*
X258491Y259863D01*
X260177Y259731D01*
X261864Y259863D01*
X263509Y260258D01*
X265072Y260906D01*
X266514Y261790D01*
X267801Y262888D01*
X268899Y264175D01*
X269783Y265617D01*
X270431Y267180D01*
X270826Y268825D01*
X270958Y270512D01*
X270826Y272198D01*
X270431Y273843D01*
X269783Y275406D01*
X268899Y276849D01*
X267801Y278135D01*
X266514Y279234D01*
X265072Y280118D01*
X263509Y280765D01*
X261864Y281160D01*
X260177Y281293D01*
D02*
G37*
G36*
X94823D02*
X93136Y281160D01*
X91491Y280765D01*
X89928Y280118D01*
X88486Y279234D01*
X87199Y278135D01*
X86101Y276849D01*
X85217Y275406D01*
X84569Y273843D01*
X84174Y272198D01*
X84042Y270512D01*
X84174Y268825D01*
X84569Y267180D01*
X85217Y265617D01*
X86101Y264175D01*
X87199Y262888D01*
X88486Y261790D01*
X89928Y260906D01*
X91491Y260258D01*
X93136Y259863D01*
X94823Y259731D01*
X96509Y259863D01*
X98154Y260258D01*
X99717Y260906D01*
X101160Y261790D01*
X102446Y262888D01*
X103545Y264175D01*
X104429Y265617D01*
X105076Y267180D01*
X105471Y268825D01*
X105604Y270512D01*
X105471Y272198D01*
X105076Y273843D01*
X104429Y275406D01*
X103545Y276849D01*
X102446Y278135D01*
X101160Y279234D01*
X99717Y280118D01*
X98154Y280765D01*
X96509Y281160D01*
X94823Y281293D01*
D02*
G37*
G36*
X60177D02*
X58491Y281160D01*
X56846Y280765D01*
X55283Y280118D01*
X53840Y279234D01*
X52554Y278135D01*
X51455Y276849D01*
X50571Y275406D01*
X49924Y273843D01*
X49529Y272198D01*
X49396Y270512D01*
X49529Y268825D01*
X49924Y267180D01*
X50571Y265617D01*
X51455Y264175D01*
X52554Y262888D01*
X53840Y261790D01*
X55283Y260906D01*
X56846Y260258D01*
X58491Y259863D01*
X60177Y259731D01*
X61864Y259863D01*
X63509Y260258D01*
X65072Y260906D01*
X66514Y261790D01*
X67801Y262888D01*
X68899Y264175D01*
X69783Y265617D01*
X70431Y267180D01*
X70826Y268825D01*
X70958Y270512D01*
X70826Y272198D01*
X70431Y273843D01*
X69783Y275406D01*
X68899Y276849D01*
X67801Y278135D01*
X66514Y279234D01*
X65072Y280118D01*
X63509Y280765D01*
X61864Y281160D01*
X60177Y281293D01*
D02*
G37*
G36*
X77500Y248512D02*
X76061Y248323D01*
X74720Y247767D01*
X73569Y246884D01*
X72882Y245988D01*
X72276D01*
X71588Y246884D01*
X70437Y247767D01*
X69096Y248323D01*
X67658Y248512D01*
X66219Y248323D01*
X64878Y247767D01*
X63726Y246884D01*
X62843Y245732D01*
X62287Y244392D01*
X62098Y242953D01*
X62287Y241514D01*
X62843Y240173D01*
X63726Y239022D01*
X64878Y238138D01*
X66219Y237583D01*
X67658Y237393D01*
X69096Y237583D01*
X70437Y238138D01*
X71588Y239022D01*
X72276Y239917D01*
X72882D01*
X73569Y239022D01*
X74720Y238138D01*
X76061Y237583D01*
X77500Y237393D01*
X78939Y237583D01*
X80280Y238138D01*
X81431Y239022D01*
X82314Y240173D01*
X82683Y241063D01*
X83224D01*
X83388Y240669D01*
X84113Y239724D01*
X85059Y238998D01*
X86161Y238542D01*
X86752Y238464D01*
Y242953D01*
Y247442D01*
X86161Y247364D01*
X85059Y246908D01*
X84113Y246182D01*
X83388Y245236D01*
X83224Y244842D01*
X82683D01*
X82314Y245732D01*
X81431Y246884D01*
X80280Y247767D01*
X78939Y248323D01*
X77500Y248512D01*
D02*
G37*
G36*
X287933Y247442D02*
Y243543D01*
X291831D01*
X291754Y244135D01*
X291297Y245236D01*
X290572Y246182D01*
X289626Y246908D01*
X288524Y247364D01*
X287933Y247442D01*
D02*
G37*
G36*
X87933D02*
Y243543D01*
X91831D01*
X91754Y244135D01*
X91297Y245236D01*
X90572Y246182D01*
X89626Y246908D01*
X88525Y247364D01*
X87933Y247442D01*
D02*
G37*
G36*
X91831Y242362D02*
X87933D01*
Y238464D01*
X88525Y238542D01*
X89626Y238998D01*
X90572Y239724D01*
X91297Y240669D01*
X91754Y241771D01*
X91831Y242362D01*
D02*
G37*
G36*
X39705Y232390D02*
X37775Y232200D01*
X35920Y231637D01*
X34210Y230723D01*
X32711Y229493D01*
X31481Y227995D01*
X30567Y226285D01*
X30005Y224429D01*
X29815Y222500D01*
X30005Y220570D01*
X30567Y218715D01*
X31481Y217005D01*
X32711Y215507D01*
X34210Y214277D01*
X35920Y213363D01*
X37775Y212800D01*
X39705Y212610D01*
X41634Y212800D01*
X43490Y213363D01*
X45199Y214277D01*
X46698Y215507D01*
X47928Y217005D01*
X48842Y218715D01*
X49405Y220570D01*
X49595Y222500D01*
X49405Y224429D01*
X48842Y226285D01*
X47928Y227995D01*
X46698Y229493D01*
X45199Y230723D01*
X43490Y231637D01*
X41634Y232200D01*
X39705Y232390D01*
D02*
G37*
G36*
X337500Y207183D02*
X336369Y207034D01*
X335316Y206598D01*
X334411Y205904D01*
X333717Y204999D01*
X333281Y203945D01*
X333132Y202815D01*
X333281Y201684D01*
X333717Y200631D01*
X334411Y199726D01*
X335316Y199032D01*
X336369Y198596D01*
X337500Y198447D01*
X338631Y198596D01*
X339684Y199032D01*
X340589Y199726D01*
X341283Y200631D01*
X341719Y201684D01*
X341868Y202815D01*
X341719Y203945D01*
X341283Y204999D01*
X340589Y205904D01*
X339684Y206598D01*
X338631Y207034D01*
X337500Y207183D01*
D02*
G37*
G36*
X26484Y157963D02*
X14518D01*
Y88016D01*
X26484D01*
Y157963D01*
D02*
G37*
%LPD*%
D11*
X65453Y207047D02*
X67953D01*
X80000Y195000D01*
Y180329D02*
Y195000D01*
Y180329D02*
X85329Y175000D01*
X88563D01*
X62500Y210000D02*
X65453Y207047D01*
D12*
X17502Y93999D02*
X16502Y92999D01*
Y91000D01*
X17502Y90000D01*
X18501D01*
X19501Y91000D01*
Y92999D01*
X20501Y93999D01*
X21500D01*
X22500Y92999D01*
Y91000D01*
X21500Y90000D01*
X18501Y96998D02*
Y98997D01*
X19501Y99997D01*
X22500D01*
Y96998D01*
X21500Y95998D01*
X20501Y96998D01*
Y99997D01*
X24499Y103996D02*
Y104995D01*
X23500Y105995D01*
X18501D01*
Y102996D01*
X19501Y101996D01*
X21500D01*
X22500Y102996D01*
Y105995D01*
X16502Y107994D02*
X22500D01*
X19501D01*
X18501Y108994D01*
Y110993D01*
X19501Y111993D01*
X22500D01*
X18501Y113992D02*
X21500D01*
X22500Y114992D01*
Y117991D01*
X23500D01*
X24499Y116991D01*
Y115992D01*
X22500Y117991D02*
X18501D01*
X22500Y125988D02*
X18501D01*
X16502Y127988D01*
X18501Y129987D01*
X22500D01*
X19501D01*
Y125988D01*
X17502Y132986D02*
X18501D01*
Y131986D01*
Y133986D01*
Y132986D01*
X21500D01*
X22500Y133986D01*
X17502Y137985D02*
X18501D01*
Y136985D01*
Y138984D01*
Y137985D01*
X21500D01*
X22500Y138984D01*
Y141983D02*
Y143983D01*
Y142983D01*
X18501D01*
Y141983D01*
X22500Y146982D02*
Y148981D01*
Y147981D01*
X16502D01*
Y146982D01*
X18501Y152980D02*
Y154979D01*
X19501Y155979D01*
X22500D01*
Y152980D01*
X21500Y151980D01*
X20501Y152980D01*
Y155979D01*
D28*
X122500Y161200D02*
D03*
X127500D02*
D03*
X132500D02*
D03*
X137500D02*
D03*
X142500D02*
D03*
X147500D02*
D03*
X152500D02*
D03*
X157500D02*
D03*
X162500D02*
D03*
X167500D02*
D03*
X122500Y198800D02*
D03*
X162500D02*
D03*
X157500D02*
D03*
X127500D02*
D03*
X167500D02*
D03*
X152500D02*
D03*
X137500D02*
D03*
X132500D02*
D03*
X147500D02*
D03*
X142500D02*
D03*
D29*
X166300Y77500D02*
D03*
Y82500D02*
D03*
Y87500D02*
D03*
Y92500D02*
D03*
Y97500D02*
D03*
Y102500D02*
D03*
Y107500D02*
D03*
Y112500D02*
D03*
Y117500D02*
D03*
Y122500D02*
D03*
X128700Y77500D02*
D03*
Y117500D02*
D03*
Y112500D02*
D03*
Y82500D02*
D03*
Y122500D02*
D03*
Y107500D02*
D03*
Y92500D02*
D03*
Y87500D02*
D03*
Y102500D02*
D03*
Y97500D02*
D03*
D30*
X271437Y207500D02*
D03*
X263563D02*
D03*
X223563Y242500D02*
D03*
X231437D02*
D03*
X178563D02*
D03*
X186437D02*
D03*
X133563D02*
D03*
X141437D02*
D03*
X138937Y67500D02*
D03*
X131063D02*
D03*
X138937Y57500D02*
D03*
X131063D02*
D03*
X83563Y140000D02*
D03*
X91437D02*
D03*
X83563Y130000D02*
D03*
X91437D02*
D03*
X83563Y120000D02*
D03*
X91437D02*
D03*
X83563Y110000D02*
D03*
X91437D02*
D03*
X83563Y100000D02*
D03*
X91437D02*
D03*
X83563Y90000D02*
D03*
X91437D02*
D03*
X83563Y80000D02*
D03*
X91437D02*
D03*
X83563Y70000D02*
D03*
X91437D02*
D03*
X96437Y175000D02*
D03*
X88563D02*
D03*
Y185000D02*
D03*
X96437D02*
D03*
X88563Y165000D02*
D03*
X96437D02*
D03*
D31*
X213642Y287913D02*
D03*
Y252087D02*
D03*
X231358D02*
D03*
Y287913D02*
D03*
X168642D02*
D03*
Y252087D02*
D03*
X186358D02*
D03*
Y287913D02*
D03*
X123642D02*
D03*
Y252087D02*
D03*
X141358D02*
D03*
Y287913D02*
D03*
D32*
X110000Y253563D02*
D03*
Y261437D02*
D03*
X152500Y253563D02*
D03*
Y261437D02*
D03*
X197500Y253563D02*
D03*
Y261437D02*
D03*
X242500Y273563D02*
D03*
Y281437D02*
D03*
Y253563D02*
D03*
Y261437D02*
D03*
X112500Y196063D02*
D03*
Y203937D02*
D03*
X197500Y281437D02*
D03*
Y273563D02*
D03*
X152500Y281437D02*
D03*
Y273563D02*
D03*
D33*
X111240Y174776D02*
D03*
X103760D02*
D03*
X107500Y185224D02*
D03*
D34*
X127500Y190623D02*
X130000Y188123D01*
X127500Y190623D02*
Y196300D01*
X130000Y187500D02*
Y188123D01*
X125000Y152500D02*
X127500Y155000D01*
Y161200D01*
X80000Y152500D02*
X125000D01*
X137500Y155000D02*
Y161200D01*
X77500Y150000D02*
X132500D01*
X137500Y155000D01*
X140000Y147500D02*
X147500Y155000D01*
X75000Y147500D02*
X140000D01*
X147500Y155000D02*
Y170000D01*
X67500Y145000D02*
X147500D01*
X157500Y155000D01*
Y161200D01*
X122500Y222500D02*
X123668Y221332D01*
X126168D02*
X142500Y205000D01*
X123668Y221332D02*
X126168D01*
X142500Y198800D02*
Y205000D01*
X152500Y222500D02*
X172500Y202500D01*
Y185000D02*
Y202500D01*
X143668Y221332D02*
X146168D01*
X162500Y198800D02*
Y205000D01*
X146168Y221332D02*
X162500Y205000D01*
X137500Y227500D02*
X143668Y221332D01*
X133668D02*
X136168D01*
X152500Y198800D02*
Y205000D01*
X132500Y222500D02*
X133668Y221332D01*
X136168D02*
X152500Y205000D01*
X113668Y221332D02*
X116168D01*
X132500Y198800D02*
Y205000D01*
X112500Y222500D02*
X113668Y221332D01*
X116168D02*
X132500Y205000D01*
X138863Y57574D02*
X138937Y57500D01*
X135492Y64329D02*
X138863Y60959D01*
Y57574D02*
Y60959D01*
X137500Y81413D02*
Y82500D01*
X135492Y79405D02*
X137500Y81413D01*
X135492Y64329D02*
Y79405D01*
X163668Y217832D02*
X177500Y204000D01*
X163668Y217832D02*
Y221332D01*
X177500Y180000D02*
Y204000D01*
X72500Y160000D02*
X80000Y152500D01*
X153508Y166008D02*
X172500Y185000D01*
X162500Y222500D02*
X163668Y221332D01*
X163508Y166008D02*
X177500Y180000D01*
X125284Y170000D02*
X130000D01*
X122642Y161342D02*
Y167358D01*
X125284Y170000D01*
X119524Y167024D02*
X127500Y175000D01*
X155000D01*
X167500Y187500D01*
X119524Y157024D02*
Y167024D01*
X117500Y170000D02*
X127500Y180000D01*
X155000D01*
X117500Y160000D02*
Y170000D01*
X115000Y157500D02*
X117500Y160000D01*
X85000Y157500D02*
X115000D01*
X82500Y155000D02*
X117500D01*
X119524Y157024D01*
X90039Y168012D02*
X96437Y174409D01*
X90039Y166476D02*
Y168012D01*
X96437Y174409D02*
Y175000D01*
X88563Y165000D02*
X90039Y166476D01*
X96661Y174776D02*
X103760D01*
X96661Y185224D02*
X107500D01*
X96437Y185000D02*
X96661Y185224D01*
X82500Y191654D02*
Y222500D01*
X88563Y185000D02*
Y185591D01*
X82500Y191654D02*
X88563Y185591D01*
X65374Y204626D02*
X77500Y192500D01*
X57874Y204626D02*
X65374D01*
X77500Y165000D02*
Y192500D01*
X62500Y200000D02*
X63592Y198908D01*
X75000Y162500D02*
Y190000D01*
X63592Y198908D02*
X66092D01*
X75000Y190000D01*
X87500Y186063D02*
X88563Y185000D01*
X155000Y180000D02*
X157500Y182500D01*
X172500Y215000D02*
X190000Y197500D01*
X172500Y215000D02*
Y222500D01*
X157500Y77500D02*
X166300D01*
X166300Y77500D01*
X167500Y187500D02*
Y196300D01*
X157500Y182500D02*
Y196300D01*
X77500Y165000D02*
X85000Y157500D01*
X190000Y135000D02*
Y197500D01*
X182500Y212500D02*
X195000Y200000D01*
X182500Y212500D02*
Y222500D01*
X170000Y227500D02*
X285000D01*
X291408Y211092D02*
Y221092D01*
X285000Y227500D02*
X291408Y221092D01*
X212500Y230000D02*
X287500D01*
X297126Y205374D02*
Y220374D01*
X287500Y230000D02*
X297126Y220374D01*
X255000Y232500D02*
X290000D01*
X300754Y221746D01*
Y211746D02*
Y221746D01*
X102500Y252500D02*
X102500Y252500D01*
X102500Y222500D02*
Y252500D01*
X102500Y222500D02*
X102500Y222500D01*
X313240Y237500D02*
X337500Y213240D01*
Y212657D02*
Y213240D01*
X260000Y237500D02*
X313240D01*
X62500Y150000D02*
X67500Y145000D01*
X70000Y157500D02*
X77500Y150000D01*
X75000Y162500D02*
X82500Y155000D01*
X62500Y160000D02*
X75000Y147500D01*
X125000Y227500D02*
X137500D01*
X110000Y242500D02*
Y253563D01*
Y242500D02*
X125000Y227500D01*
X291408Y211092D02*
X292500Y210000D01*
X300754Y211746D02*
X302500Y210000D01*
X155000Y242500D02*
X170000Y227500D01*
X200000Y242500D02*
X212500Y230000D01*
X245000Y242500D02*
X255000Y232500D01*
X231437Y242500D02*
X245000D01*
X141437D02*
X155000D01*
X186437D02*
X200000D01*
X297126Y205374D02*
X302500Y200000D01*
X242500Y261437D02*
Y273563D01*
X197500Y261437D02*
Y273563D01*
X152500Y261437D02*
Y273563D01*
X141358Y252087D02*
X142835Y253563D01*
X152500D01*
X186358Y253465D02*
X186457Y253563D01*
X197500D01*
X231457D02*
X242500D01*
X231358Y253465D02*
X231457Y253563D01*
X141358Y252087D02*
Y287913D01*
Y242579D02*
Y252087D01*
X186358Y253465D02*
Y287913D01*
Y242579D02*
Y252087D01*
X231358Y253465D02*
Y287913D01*
Y242579D02*
Y252087D01*
X242500Y215000D02*
Y222500D01*
X225000Y117500D02*
Y197500D01*
X242500Y215000D01*
X128700Y82500D02*
X137500D01*
X65374Y194626D02*
X72500Y187500D01*
Y160000D02*
Y187500D01*
X70000Y157500D02*
Y185000D01*
X63592Y188908D02*
X66092D01*
X70000Y185000D01*
X62500Y190000D02*
X63592Y188908D01*
X57874Y194626D02*
X65374D01*
X52500Y200000D02*
X57874Y194626D01*
X52500Y210000D02*
X57874Y204626D01*
X205000Y127500D02*
Y205000D01*
X180000Y102500D02*
X205000Y127500D01*
X166300Y102500D02*
X180000D01*
X182500Y97500D02*
X210000Y125000D01*
X166300Y97500D02*
X182500D01*
X210000Y125000D02*
Y205000D01*
X215000Y122500D02*
Y202500D01*
X185000Y92500D02*
X215000Y122500D01*
X166300Y92500D02*
X185000D01*
X187500Y87500D02*
X220000Y120000D01*
Y200000D01*
X166300Y87500D02*
X187500D01*
X190000Y82500D02*
X225000Y117500D01*
X166300Y82500D02*
X190000D01*
X200000Y130000D02*
Y202500D01*
X166300Y107500D02*
X177500D01*
X200000Y130000D01*
X195000Y132500D02*
Y200000D01*
X175000Y112500D02*
X195000Y132500D01*
X166300Y112500D02*
X175000D01*
X166300Y117500D02*
X172500D01*
X190000Y135000D01*
X212500Y207500D02*
Y222500D01*
X210000Y205000D02*
X212500Y207500D01*
X215000Y202500D02*
X222500Y210000D01*
Y222500D01*
X232500Y212500D02*
Y222500D01*
X220000Y200000D02*
X232500Y212500D01*
X202500Y207500D02*
X205000Y205000D01*
X202500Y207500D02*
Y222500D01*
X192500Y210000D02*
Y222500D01*
Y210000D02*
X200000Y202500D01*
X115000Y92500D02*
X128700D01*
X102500Y80000D02*
X115000Y92500D01*
X91437Y80000D02*
X102500D01*
X110000Y97500D02*
X128700D01*
X102500Y90000D02*
X110000Y97500D01*
X91437Y90000D02*
X102500D01*
X105000Y102500D02*
X128700D01*
X102500Y100000D02*
X105000Y102500D01*
X91437Y100000D02*
X102500D01*
X105000Y107500D02*
X128700D01*
X102500Y110000D02*
X105000Y107500D01*
X91437Y110000D02*
X102500D01*
X120000Y122500D02*
X128700D01*
X91437Y140000D02*
X102500D01*
X120000Y122500D01*
X91437Y130000D02*
X102500D01*
X115000Y117500D01*
X128700D01*
X102500Y120000D02*
X110000Y112500D01*
X128700D01*
X91437Y120000D02*
X102500D01*
X120000Y87500D02*
X128700D01*
X91437Y70000D02*
X102500D01*
X120000Y87500D01*
X62500Y140000D02*
X83563D01*
X62500Y130000D02*
X83563D01*
X62500Y120000D02*
X83563D01*
X62500Y110000D02*
X83563D01*
X62500Y100000D02*
X83563D01*
X62500Y90000D02*
X83563D01*
X62500Y80000D02*
X83563D01*
X62500Y70000D02*
X83563D01*
D35*
X292500Y110000D02*
Y120000D01*
X302500D01*
D36*
X105820Y195000D02*
X106883Y196063D01*
X105000Y195000D02*
X105820D01*
X106883Y196063D02*
X112500D01*
X122500Y67500D02*
X131063D01*
X112500Y196063D02*
X122434D01*
X272500Y222500D02*
X282680D01*
X285780Y219400D01*
X286600D01*
X131063Y57500D02*
Y67500D01*
Y77237D01*
X271969Y208032D02*
Y221969D01*
X271437Y207500D02*
X271969Y208032D01*
D37*
X215000Y242500D02*
X223563D01*
X125000D02*
X133563D01*
X170000D02*
X178563D01*
X130800Y77500D02*
X131063Y77237D01*
X128700Y77500D02*
X130800D01*
D38*
X337500Y222500D02*
D03*
Y212657D02*
D03*
Y202815D02*
D03*
D39*
X272500Y222500D02*
D03*
X262500D02*
D03*
X252500D02*
D03*
X242500D02*
D03*
X232500D02*
D03*
X222500D02*
D03*
X212500D02*
D03*
X202500D02*
D03*
X192500D02*
D03*
X182500D02*
D03*
X172500D02*
D03*
X162500D02*
D03*
X152500D02*
D03*
X142500D02*
D03*
X132500D02*
D03*
X122500D02*
D03*
X112500D02*
D03*
X102500D02*
D03*
X92500D02*
D03*
X82500D02*
D03*
X287343Y242953D02*
D03*
X277500D02*
D03*
X267657D02*
D03*
X87343D02*
D03*
X77500D02*
D03*
X67658D02*
D03*
D40*
X315295Y222500D02*
D03*
X39705D02*
D03*
X315295Y26831D02*
D03*
X39705D02*
D03*
D41*
X294823Y270512D02*
D03*
X260177D02*
D03*
X94823D02*
D03*
X60177D02*
D03*
D42*
X335000Y282500D02*
D03*
Y20000D02*
D03*
X20000D02*
D03*
Y282500D02*
D03*
D43*
X62500Y20000D02*
D03*
X52500D02*
D03*
X302500D02*
D03*
X292500D02*
D03*
Y30000D02*
D03*
X302500D02*
D03*
X292500Y40000D02*
D03*
X302500D02*
D03*
X292500Y50000D02*
D03*
X302500D02*
D03*
X292500Y60000D02*
D03*
X302500D02*
D03*
X292500Y70000D02*
D03*
X302500D02*
D03*
X292500Y80000D02*
D03*
X302500D02*
D03*
X292500Y90000D02*
D03*
X302500D02*
D03*
X292500Y100000D02*
D03*
X302500D02*
D03*
X292500Y110000D02*
D03*
X302500D02*
D03*
X292500Y120000D02*
D03*
X302500D02*
D03*
X292500Y130000D02*
D03*
X302500D02*
D03*
X292500Y140000D02*
D03*
X302500D02*
D03*
X292500Y150000D02*
D03*
X302500D02*
D03*
X292500Y160000D02*
D03*
X302500D02*
D03*
X292500Y170000D02*
D03*
X302500D02*
D03*
X292500Y180000D02*
D03*
X302500D02*
D03*
X292500Y190000D02*
D03*
X302500D02*
D03*
X292500Y200000D02*
D03*
X302500D02*
D03*
X292500Y210000D02*
D03*
X52500Y30000D02*
D03*
X62500D02*
D03*
X52500Y40000D02*
D03*
X62500D02*
D03*
X52500Y50000D02*
D03*
X62500D02*
D03*
X52500Y60000D02*
D03*
X62500D02*
D03*
X52500Y70000D02*
D03*
X62500D02*
D03*
X52500Y80000D02*
D03*
X62500D02*
D03*
X52500Y90000D02*
D03*
X62500D02*
D03*
X52500Y100000D02*
D03*
X62500D02*
D03*
X52500Y110000D02*
D03*
X62500D02*
D03*
X52500Y120000D02*
D03*
X62500D02*
D03*
X52500Y130000D02*
D03*
X62500D02*
D03*
X52500Y140000D02*
D03*
X62500D02*
D03*
X52500Y150000D02*
D03*
X62500D02*
D03*
X52500Y160000D02*
D03*
X62500D02*
D03*
X52500Y170000D02*
D03*
X62500D02*
D03*
X52500Y180000D02*
D03*
X62500D02*
D03*
X52500Y190000D02*
D03*
X62500D02*
D03*
X52500Y200000D02*
D03*
X62500D02*
D03*
X52500Y210000D02*
D03*
D44*
X302500D02*
D03*
X62500D02*
D03*
D45*
X130000Y187500D02*
D03*
X147500Y170000D02*
D03*
X130000D02*
D03*
X147500Y187500D02*
D03*
X105000Y210000D02*
D03*
X122500Y67500D02*
D03*
X105000Y195000D02*
D03*
X157500Y77500D02*
D03*
X110000Y165000D02*
D03*
X286600Y219400D02*
D03*
X102500Y252500D02*
D03*
X260000Y237500D02*
D03*
X125000Y242500D02*
D03*
X170000D02*
D03*
X215000D02*
D03*
X137500Y82500D02*
D03*
M02*
