G04*
G04 #@! TF.GenerationSoftware,Altium Limited,Altium Designer,23.3.1 (30)*
G04*
G04 Layer_Color=8388736*
%FSLAX25Y25*%
%MOIN*%
G70*
G04*
G04 #@! TF.SameCoordinates,9A21843B-87D8-4875-86EA-9B3002E87254*
G04*
G04*
G04 #@! TF.FilePolarity,Negative*
G04*
G01*
G75*
%ADD14R,0.03287X0.10787*%
%ADD15R,0.10787X0.03287*%
%ADD16R,0.04724X0.05906*%
%ADD17R,0.06299X0.09055*%
%ADD18R,0.05906X0.04724*%
%ADD19R,0.03347X0.05512*%
%ADD20C,0.05512*%
%ADD21C,0.07874*%
%ADD22C,0.16535*%
%ADD23C,0.18347*%
%ADD24C,0.24410*%
%ADD25C,0.07480*%
%ADD26R,0.07480X0.07480*%
%ADD27C,0.05787*%
D14*
X122500Y161200D02*
D03*
X127500D02*
D03*
X132500D02*
D03*
X137500D02*
D03*
X142500D02*
D03*
X147500D02*
D03*
X152500D02*
D03*
X157500D02*
D03*
X162500D02*
D03*
X167500D02*
D03*
X122500Y198800D02*
D03*
X162500D02*
D03*
X157500D02*
D03*
X127500D02*
D03*
X167500D02*
D03*
X152500D02*
D03*
X137500D02*
D03*
X132500D02*
D03*
X147500D02*
D03*
X142500D02*
D03*
D15*
X166300Y77500D02*
D03*
Y82500D02*
D03*
Y87500D02*
D03*
Y92500D02*
D03*
Y97500D02*
D03*
Y102500D02*
D03*
Y107500D02*
D03*
Y112500D02*
D03*
Y117500D02*
D03*
Y122500D02*
D03*
X128700Y77500D02*
D03*
Y117500D02*
D03*
Y112500D02*
D03*
Y82500D02*
D03*
Y122500D02*
D03*
Y107500D02*
D03*
Y92500D02*
D03*
Y87500D02*
D03*
Y102500D02*
D03*
Y97500D02*
D03*
D16*
X271437Y207500D02*
D03*
X263563D02*
D03*
X223563Y242500D02*
D03*
X231437D02*
D03*
X178563D02*
D03*
X186437D02*
D03*
X133563D02*
D03*
X141437D02*
D03*
X138937Y67500D02*
D03*
X131063D02*
D03*
X138937Y57500D02*
D03*
X131063D02*
D03*
X83563Y140000D02*
D03*
X91437D02*
D03*
X83563Y130000D02*
D03*
X91437D02*
D03*
X83563Y120000D02*
D03*
X91437D02*
D03*
X83563Y110000D02*
D03*
X91437D02*
D03*
X83563Y100000D02*
D03*
X91437D02*
D03*
X83563Y90000D02*
D03*
X91437D02*
D03*
X83563Y80000D02*
D03*
X91437D02*
D03*
X83563Y70000D02*
D03*
X91437D02*
D03*
X96437Y175000D02*
D03*
X88563D02*
D03*
Y185000D02*
D03*
X96437D02*
D03*
X88563Y165000D02*
D03*
X96437D02*
D03*
D17*
X213642Y287913D02*
D03*
Y252087D02*
D03*
X231358D02*
D03*
Y287913D02*
D03*
X168642D02*
D03*
Y252087D02*
D03*
X186358D02*
D03*
Y287913D02*
D03*
X123642D02*
D03*
Y252087D02*
D03*
X141358D02*
D03*
Y287913D02*
D03*
D18*
X110000Y253563D02*
D03*
Y261437D02*
D03*
X152500Y253563D02*
D03*
Y261437D02*
D03*
X197500Y253563D02*
D03*
Y261437D02*
D03*
X242500Y273563D02*
D03*
Y281437D02*
D03*
Y253563D02*
D03*
Y261437D02*
D03*
X112500Y196063D02*
D03*
Y203937D02*
D03*
X197500Y281437D02*
D03*
Y273563D02*
D03*
X152500Y281437D02*
D03*
Y273563D02*
D03*
D19*
X111240Y174776D02*
D03*
X103760D02*
D03*
X107500Y185224D02*
D03*
D20*
X337500Y222500D02*
D03*
Y212657D02*
D03*
Y202815D02*
D03*
D21*
X272500Y222500D02*
D03*
X262500D02*
D03*
X252500D02*
D03*
X242500D02*
D03*
X232500D02*
D03*
X222500D02*
D03*
X212500D02*
D03*
X202500D02*
D03*
X192500D02*
D03*
X182500D02*
D03*
X172500D02*
D03*
X162500D02*
D03*
X152500D02*
D03*
X142500D02*
D03*
X132500D02*
D03*
X122500D02*
D03*
X112500D02*
D03*
X102500D02*
D03*
X92500D02*
D03*
X82500D02*
D03*
X287343Y242953D02*
D03*
X277500D02*
D03*
X267657D02*
D03*
X87343D02*
D03*
X77500D02*
D03*
X67658D02*
D03*
D22*
X315295Y222500D02*
D03*
X39705D02*
D03*
X315295Y26831D02*
D03*
X39705D02*
D03*
D23*
X294823Y270512D02*
D03*
X260177D02*
D03*
X94823D02*
D03*
X60177D02*
D03*
D24*
X335000Y282500D02*
D03*
Y20000D02*
D03*
X20000D02*
D03*
Y282500D02*
D03*
D25*
X62500Y20000D02*
D03*
X52500D02*
D03*
X302500D02*
D03*
X292500D02*
D03*
Y30000D02*
D03*
X302500D02*
D03*
X292500Y40000D02*
D03*
X302500D02*
D03*
X292500Y50000D02*
D03*
X302500D02*
D03*
X292500Y60000D02*
D03*
X302500D02*
D03*
X292500Y70000D02*
D03*
X302500D02*
D03*
X292500Y80000D02*
D03*
X302500D02*
D03*
X292500Y90000D02*
D03*
X302500D02*
D03*
X292500Y100000D02*
D03*
X302500D02*
D03*
X292500Y110000D02*
D03*
X302500D02*
D03*
X292500Y120000D02*
D03*
X302500D02*
D03*
X292500Y130000D02*
D03*
X302500D02*
D03*
X292500Y140000D02*
D03*
X302500D02*
D03*
X292500Y150000D02*
D03*
X302500D02*
D03*
X292500Y160000D02*
D03*
X302500D02*
D03*
X292500Y170000D02*
D03*
X302500D02*
D03*
X292500Y180000D02*
D03*
X302500D02*
D03*
X292500Y190000D02*
D03*
X302500D02*
D03*
X292500Y200000D02*
D03*
X302500D02*
D03*
X292500Y210000D02*
D03*
X52500Y30000D02*
D03*
X62500D02*
D03*
X52500Y40000D02*
D03*
X62500D02*
D03*
X52500Y50000D02*
D03*
X62500D02*
D03*
X52500Y60000D02*
D03*
X62500D02*
D03*
X52500Y70000D02*
D03*
X62500D02*
D03*
X52500Y80000D02*
D03*
X62500D02*
D03*
X52500Y90000D02*
D03*
X62500D02*
D03*
X52500Y100000D02*
D03*
X62500D02*
D03*
X52500Y110000D02*
D03*
X62500D02*
D03*
X52500Y120000D02*
D03*
X62500D02*
D03*
X52500Y130000D02*
D03*
X62500D02*
D03*
X52500Y140000D02*
D03*
X62500D02*
D03*
X52500Y150000D02*
D03*
X62500D02*
D03*
X52500Y160000D02*
D03*
X62500D02*
D03*
X52500Y170000D02*
D03*
X62500D02*
D03*
X52500Y180000D02*
D03*
X62500D02*
D03*
X52500Y190000D02*
D03*
X62500D02*
D03*
X52500Y200000D02*
D03*
X62500D02*
D03*
X52500Y210000D02*
D03*
D26*
X302500D02*
D03*
X62500D02*
D03*
D27*
X130000Y187500D02*
D03*
X147500Y170000D02*
D03*
X130000D02*
D03*
X147500Y187500D02*
D03*
X105000Y210000D02*
D03*
X122500Y67500D02*
D03*
X105000Y195000D02*
D03*
X157500Y77500D02*
D03*
X110000Y165000D02*
D03*
X286600Y219400D02*
D03*
X102500Y252500D02*
D03*
X260000Y237500D02*
D03*
X125000Y242500D02*
D03*
X170000D02*
D03*
X215000D02*
D03*
X137500Y82500D02*
D03*
M02*
